<svg width="105" height="155" viewBox="0 0 105 155" fill="none" xmlns="http://www.w3.org/2000/svg">
<path d="M50.9208 137.823C41.3052 137.823 32.0174 136.73 23.0574 134.545C14.0974 132.359 6.72176 129.518 0.930536 126.022L13.3871 97.8304C18.8505 100.999 24.9149 103.567 31.5803 105.534C38.3549 107.391 44.911 108.32 51.2486 108.32C54.9637 108.32 57.8593 108.102 59.9354 107.665C62.1208 107.118 63.7052 106.408 64.6886 105.534C65.672 104.55 66.1637 103.403 66.1637 102.092C66.1637 100.016 65.0164 98.3768 62.7218 97.1748C60.4271 95.9729 57.3676 94.9895 53.5432 94.2246C49.8281 93.3504 45.7305 92.4763 41.2505 91.6021C36.7705 90.6187 32.2359 89.3621 27.6466 87.8324C23.1666 86.3026 19.0144 84.2812 15.19 81.768C11.4749 79.2548 8.47005 75.9768 6.17541 71.9339C3.88078 67.7817 2.73346 62.646 2.73346 56.527C2.73346 49.4246 4.70029 42.9778 8.63395 37.1865C12.6769 31.286 18.632 26.5875 26.4993 23.0909C34.4759 19.5943 44.3647 17.846 56.1657 17.846C63.9237 17.846 71.5725 18.6656 79.112 20.3046C86.6515 21.9436 93.4261 24.4568 99.4359 27.8441L87.7988 55.8714C82.1169 53.0304 76.5988 50.8997 71.2447 49.4792C65.9998 48.0587 60.8642 47.3485 55.8379 47.3485C52.1227 47.3485 49.1725 47.6763 46.9871 48.3319C44.8018 48.9875 43.2174 49.8617 42.234 50.9543C41.3598 52.047 40.9227 53.249 40.9227 54.5602C40.9227 56.527 42.07 58.1114 44.3647 59.3134C46.6593 60.406 49.6642 61.3348 53.3793 62.0997C57.2037 62.8646 61.3559 63.6841 65.8359 64.5582C70.4252 65.4324 74.9598 66.6343 79.4398 68.1641C83.9198 69.6939 88.0174 71.7153 91.7325 74.2285C95.5569 76.7417 98.6164 80.0197 100.911 84.0626C103.206 88.1056 104.353 93.1319 104.353 99.1417C104.353 106.135 102.332 112.582 98.2886 118.482C94.3549 124.273 88.4544 128.972 80.5871 132.578C72.7198 136.074 62.831 137.823 50.9208 137.823ZM43.0535 154.868V133.561H66.1637V154.868H43.0535ZM43.0535 22.1075V0.80019H66.1637V22.1075H43.0535Z" fill="#FE5001"/>
</svg>
