<svg width="151" height="158" viewBox="0 0 151 158" fill="none" xmlns="http://www.w3.org/2000/svg">
<path d="M65.8575 8.16121C67.8451 -2.56103 83.2087 -2.56105 85.1963 8.16119L86.7354 16.4637C88.1572 24.1336 97.5154 27.1743 103.174 21.8049L109.299 15.9927C117.21 8.48652 129.639 17.517 124.945 27.3597L121.31 34.9813C117.952 42.0221 123.735 49.9827 131.469 48.9647L139.841 47.8629C150.653 46.4399 155.4 61.0515 145.817 66.2552L138.396 70.2846C131.541 74.0069 131.541 83.8467 138.396 87.5691L145.817 91.5984C155.4 96.8022 150.653 111.414 139.841 109.991L131.469 108.889C123.735 107.871 117.952 115.831 121.31 122.872L124.945 130.494C129.639 140.337 117.21 149.367 109.299 141.861L103.174 136.049C97.5154 130.679 88.1572 133.72 86.7354 141.39L85.1963 149.692C83.2087 160.415 67.8451 160.415 65.8575 149.692L64.3184 141.39C62.8966 133.72 53.5384 130.679 47.8799 136.049L41.7546 141.861C33.8442 149.367 21.4149 140.337 26.1092 130.494L29.7441 122.872C33.1021 115.832 27.3185 107.871 19.5846 108.889L11.2128 109.991C0.401154 111.414 -4.34646 96.8022 5.23677 91.5984L12.6573 87.5691C19.5125 83.8467 19.5125 74.007 12.6573 70.2846L5.23678 66.2552C-4.34645 61.0515 0.401131 46.4399 11.2128 47.8629L19.5846 48.9647C27.3185 49.9827 33.1022 42.0221 29.7441 34.9813L26.1092 27.3598C21.4149 17.517 33.8442 8.48652 41.7546 15.9927L47.8799 21.8049C53.5384 27.1743 62.8966 24.1337 64.3184 16.4637L65.8575 8.16121Z" fill="#FE5001"/>
</svg>
