<svg width="220" height="219" viewBox="0 0 220 219" fill="none" xmlns="http://www.w3.org/2000/svg">
<path fill-rule="evenodd" clip-rule="evenodd" d="M110.084 109.42C79.8957 109.42 55.4233 133.893 55.4233 164.081C55.4233 194.269 79.8957 218.742 110.084 218.742V109.42Z" fill="#FE5001"/>
<path fill-rule="evenodd" clip-rule="evenodd" d="M0.762451 109.42C0.762451 79.2318 25.2349 54.7593 55.4233 54.7593C85.6116 54.7593 110.084 79.2318 110.084 109.42H0.762451Z" fill="#FE5001"/>
<path fill-rule="evenodd" clip-rule="evenodd" d="M110.084 109.42C110.084 109.42 110.084 109.42 110.084 109.42C140.273 109.42 164.745 84.9477 164.745 54.7593C164.745 24.571 140.273 0.098526 110.084 0.098526C110.084 0.098526 110.084 0.098526 110.084 0.098526L110.084 109.42Z" fill="#FE5001"/>
<path fill-rule="evenodd" clip-rule="evenodd" d="M110.084 109.42C110.084 139.609 134.556 164.081 164.745 164.081C194.933 164.081 219.405 139.609 219.405 109.42L110.084 109.42Z" fill="#FE5001"/>
</svg>
