<svg width="165" height="152" viewBox="0 0 165 152" fill="none" xmlns="http://www.w3.org/2000/svg">
<path fill-rule="evenodd" clip-rule="evenodd" d="M139.481 113.829C133.91 113.829 129.393 108.184 129.393 101.22L114.262 101.22V116.351C107.299 116.351 101.653 120.867 101.653 126.438C101.653 132.009 107.299 136.525 114.262 136.525V151.656L129.393 151.656C129.393 144.692 133.91 139.047 139.481 139.047C145.052 139.047 149.569 144.692 149.569 151.656L164.701 151.656V136.525C157.737 136.525 152.092 132.009 152.092 126.438C152.092 120.867 157.737 116.351 164.701 116.351V101.22L149.569 101.22C149.569 108.184 145.052 113.829 139.481 113.829Z" fill="#FE5001"/>
<path fill-rule="evenodd" clip-rule="evenodd" d="M78.986 50.71H63.8555V65.8409C70.8195 65.841 76.465 70.3572 76.465 75.9282C76.465 81.4992 70.8195 86.0154 63.8555 86.0155V101.147H78.986V101.146C78.986 94.1826 83.5025 88.5373 89.0738 88.5373C94.6451 88.5373 99.1616 94.1826 99.1616 101.146V101.147H114.294V86.0157C114.294 86.0157 114.294 86.0157 114.295 86.0157C121.259 86.0157 126.904 81.4995 126.904 75.9284C126.904 70.3573 121.259 65.8411 114.295 65.8411C114.294 65.8411 114.294 65.8411 114.294 65.8411V50.71H99.1616C99.1615 57.6738 94.6451 63.3191 89.0738 63.3191C83.5025 63.3191 78.986 57.6738 78.986 50.71Z" fill="#FE5001"/>
<path fill-rule="evenodd" clip-rule="evenodd" d="M149.572 50.6368H164.702V35.506C157.738 35.5059 152.093 30.9897 152.093 25.4186C152.093 19.8476 157.738 15.3314 164.702 15.3313V0.20023H149.572C149.572 7.16404 145.055 12.8093 139.484 12.8093C133.913 12.8093 129.396 7.16404 129.396 0.20023H114.263V15.3312C114.263 15.3312 114.263 15.3312 114.263 15.3312C107.299 15.3312 101.653 19.8474 101.653 25.4185C101.653 30.9895 107.299 35.5058 114.263 35.5058C114.263 35.5058 114.263 35.5058 114.263 35.5058V50.6368H129.396C129.396 50.6369 129.396 50.6369 129.396 50.6369C129.396 57.6008 133.913 63.2461 139.484 63.2461C145.055 63.2461 149.572 57.6008 149.572 50.6369C149.572 50.6369 149.572 50.6369 149.572 50.6368Z" fill="#FE5001"/>
<path fill-rule="evenodd" clip-rule="evenodd" d="M38.6279 113.829C44.1992 113.829 48.7156 108.184 48.7156 101.22L63.8484 101.22V116.351C70.8117 116.351 76.4564 120.867 76.4564 126.438C76.4564 132.009 70.8117 136.525 63.8484 136.525V151.656H48.7156V151.656C48.7156 144.692 44.1992 139.047 38.6279 139.047C33.0565 139.047 28.5401 144.692 28.5401 151.656V151.656H13.4096V136.525C13.4095 136.525 13.4095 136.525 13.4095 136.525C6.44536 136.525 0.799805 132.009 0.799805 126.438C0.799805 120.867 6.44536 116.351 13.4095 116.351C13.4095 116.351 13.4095 116.351 13.4096 116.351V101.22H28.5401C28.5401 108.184 33.0565 113.829 38.6279 113.829Z" fill="#FE5001"/>
<path fill-rule="evenodd" clip-rule="evenodd" d="M48.7189 50.6368H63.8496V35.506C56.8855 35.5059 51.2401 30.9897 51.2401 25.4186C51.2401 19.8476 56.8855 15.3314 63.8496 15.3313V0.20023H48.719C48.719 7.16404 44.2025 12.8093 38.6312 12.8093C33.0599 12.8093 28.5435 7.16404 28.5435 0.20023H13.4108V15.3312C13.4106 15.3312 13.4104 15.3312 13.4102 15.3312C6.44602 15.3312 0.800465 19.8474 0.800465 25.4185C0.800465 30.9895 6.44602 35.5058 13.4102 35.5058C13.4104 35.5058 13.4106 35.5058 13.4108 35.5058V50.6368H28.5434C28.5434 50.6369 28.5434 50.6369 28.5434 50.6369C28.5434 57.6008 33.0598 63.2461 38.6311 63.2461C44.2024 63.2461 48.7189 57.6008 48.7189 50.6369C48.7189 50.6369 48.7189 50.6369 48.7189 50.6368Z" fill="#FE5001"/>
</svg>
