<svg width="63" height="62" viewBox="0 0 63 62" fill="none" xmlns="http://www.w3.org/2000/svg">
<g clip-path="url(#clip0_2335_7668)">
<path d="M61.4006 37.1723C64.8005 20.6106 54.1308 4.42861 37.5692 1.0287C21.0075 -2.3712 4.82551 8.29849 1.4256 24.8601C-1.9743 41.4218 8.6954 57.6038 25.257 61.0037C41.8187 64.4036 58.0007 53.7339 61.4006 37.1723Z" fill="white"/>
<path d="M29.2034 5.03191L29.1674 4.56391C29.2514 4.55191 29.3354 4.55191 29.4074 4.53991C29.8874 4.50391 30.3674 4.47991 30.8474 4.46791L31.1594 8.53591L32.0114 8.47591L31.6994 4.47991L31.6394 3.71191C31.1834 3.71191 30.7154 3.71191 30.2594 3.73591L28.4354 3.87991C28.3994 3.87991 28.3514 3.89191 28.3154 3.89191L28.3754 4.64791L28.3874 4.83991C28.6034 7.74391 28.1714 8.09191 27.6794 8.12791C27.5714 8.13991 27.4634 8.12791 27.4034 8.10391L27.3794 8.81191C27.5114 8.83591 27.7874 8.85991 27.9794 8.84791C28.9154 8.77591 29.4314 8.11591 29.2034 5.03191Z" fill="#102D69"/>
<path d="M24.4997 9.73581C25.9157 9.26781 26.5757 7.85181 26.1437 6.55581C25.7117 5.23581 24.3797 4.47981 22.9517 4.94781C21.5357 5.41581 20.8757 6.83181 21.3077 8.12781C21.7397 9.44781 23.0837 10.2038 24.4997 9.73581ZM23.1917 5.70381C24.1157 5.40381 25.0037 5.94381 25.3037 6.84381C25.4477 7.29981 25.4237 7.76781 25.2437 8.15181C25.0637 8.53581 24.7397 8.84781 24.2717 9.00381C23.3477 9.30381 22.4597 8.76381 22.1597 7.86381C21.9197 7.10781 22.1717 6.35181 22.7837 5.94381C22.9157 5.84781 23.0357 5.75181 23.1917 5.70381Z" fill="#102D69"/>
<path d="M34.6395 7.63612C35.0235 7.68412 35.3955 7.74412 35.7795 7.81612C36.1515 7.88812 36.5355 7.97212 36.9075 8.05612L37.1595 9.28012L38.0595 9.53212L36.8595 4.25212L36.0795 4.12012L33.0435 8.59612L33.9555 8.68012L34.6395 7.63612ZM36.2595 5.20012L36.7275 7.25212C36.4515 7.19212 36.1875 7.13212 35.9115 7.08412C35.6355 7.03612 35.3715 6.98812 35.0955 6.94012L36.2595 5.20012Z" fill="#102D69"/>
<path d="M42.2116 9.68805C42.6916 9.92805 43.2796 9.73605 43.5196 9.25605C43.7596 8.77605 43.5676 8.18805 43.0876 7.94805C42.6076 7.70805 42.0196 7.90005 41.7796 8.38005C41.5396 8.86005 41.7316 9.44805 42.2116 9.68805Z" fill="#102D69"/>
<path d="M53.9114 19.9841C52.6154 20.4641 51.9194 21.8321 52.4354 23.2361C52.9514 24.6401 54.4034 25.2281 55.6874 24.7481C56.9834 24.2681 57.6794 22.9001 57.1634 21.4961C56.6354 20.0921 55.1954 19.5041 53.9114 19.9841ZM56.4194 21.7601C56.7554 22.6601 56.2634 23.5841 55.3754 23.9081C55.2914 23.9441 55.2074 23.9321 55.1354 23.9561C54.3074 24.1481 53.4914 23.8001 53.1914 22.9721C52.9754 22.4081 53.0954 21.8321 53.4314 21.4121C53.4794 21.3401 53.5514 21.2801 53.6114 21.2201C53.6234 21.2081 53.6354 21.1841 53.6474 21.1721C53.6834 21.1361 53.7314 21.1121 53.7794 21.0761C53.8274 21.0401 53.8754 21.0041 53.9234 20.9681C53.9234 20.9681 53.9234 20.9681 53.9354 20.9681C54.0314 20.9081 54.1274 20.8601 54.2354 20.8241C54.6794 20.6561 55.1474 20.6681 55.5434 20.8241C55.9274 20.9921 56.2514 21.3041 56.4194 21.7601Z" fill="#102D69"/>
<path d="M53.6237 27.5318L55.6037 27.3518H55.6277C55.6997 27.8078 55.7477 28.2758 55.7957 28.7318C55.8437 29.1878 55.8677 29.6558 55.8917 30.1238H55.8677L53.8877 30.3038L53.9117 31.1558L58.7117 30.6998L58.6757 29.8478L56.6597 30.0398H56.6477C56.6237 29.5718 56.5997 29.1158 56.5517 28.6478C56.5037 28.1918 56.4557 27.7238 56.3837 27.2678H56.3957L58.4237 27.0758L58.2917 26.2358L53.4917 26.6918L53.6237 27.5318Z" fill="#102D69"/>
<path d="M37.8798 26.9918C38.9358 25.7678 39.3798 24.2798 39.3798 22.8638C39.3798 21.7238 39.0678 19.4438 37.0638 17.8718C35.6838 16.8038 34.4718 16.2998 31.5558 16.2998H30.0798C30.0318 16.2998 29.9958 16.2998 29.9358 16.2998H23.8638V44.9918H41.2038V39.4838C41.2038 34.2158 39.4998 30.6758 35.0958 29.1158C36.4758 28.5398 37.3278 27.6638 37.8798 26.9918ZM34.4358 26.4398C33.6438 27.4238 32.3598 28.3358 30.5358 28.3358C30.5238 28.3358 30.5118 28.3358 30.4998 28.3358V29.7638C35.3718 29.7638 37.2798 33.0038 37.2798 38.9318V43.3958H34.1478V33.8198H30.5358V43.4078H27.7758V17.7278H30.6198C31.6878 17.7278 33.2958 17.9678 34.4358 19.3838C35.0238 20.1038 35.3958 21.0518 35.5158 22.0118H30.5358V23.4278H35.5518C35.5158 24.3398 35.3238 25.3598 34.4358 26.4398Z" fill="#102D69"/>
<path d="M49.5194 17.6917L51.1994 16.5877L51.5234 17.0797L51.0194 18.5197C50.7554 19.2517 50.6834 19.9597 51.2594 20.4517L51.8834 20.0437C51.6194 19.8157 51.6194 19.4317 51.7874 18.8797L52.2914 17.2957L55.2434 17.7157L54.7154 16.8637L52.1234 16.5757L51.8474 16.1677L53.5394 15.0517L53.0234 14.3677L49.0034 17.0077L49.5194 17.6917Z" fill="#102D69"/>
<path d="M50.0234 14.2359C50.9474 13.2279 50.9354 11.6679 49.8314 10.6599C49.1594 10.0479 48.3554 9.85588 47.5994 10.0239L47.7914 10.8759C48.3074 10.7439 48.8594 10.8519 49.3034 11.2479C49.9154 11.8119 49.9874 12.6399 49.5794 13.3119C49.2194 12.9399 48.8474 12.5799 48.4634 12.2439C48.3074 12.0999 48.1394 11.9559 47.9834 11.8119L47.4914 12.3879C47.6474 12.5199 47.8034 12.6639 47.9594 12.7959C48.3434 13.1439 48.7154 13.5039 49.0754 13.8759C48.4394 14.3439 47.5874 14.3559 46.9634 13.7919C46.5074 13.3839 46.3514 12.8199 46.4594 12.2799L45.6074 12.1599C45.4994 12.9399 45.7634 13.7679 46.4474 14.3799C47.5514 15.3879 49.0874 15.2559 50.0234 14.2359Z" fill="#102D69"/>
<path d="M18.6915 12.4958L17.6475 10.7798L18.1515 10.4678L19.5795 11.0198C20.2995 11.3078 21.0075 11.4038 21.5115 10.8398L21.1275 10.2038C20.8875 10.4678 20.5035 10.4558 19.9515 10.2638L18.3915 9.69977L18.9075 6.75977L18.0435 7.25177L17.6715 9.83177L17.2515 10.0958L16.1955 8.36777L15.4995 8.85977L18.0075 12.9638L18.6915 12.4958Z" fill="#102D69"/>
<path d="M5.62356 30.424C6.45156 30.496 6.91956 29.992 7.08756 29.596L7.93956 30.328C8.16756 30.532 8.32356 30.916 8.22756 31.18L8.95956 31.168C9.13956 30.772 9.04356 30.196 8.46756 29.716L7.32756 28.756L7.37556 28.156L9.11556 28.312L9.23556 27.448L4.42356 27.064C4.37556 27.328 4.26756 28.396 4.25556 28.54C4.13556 29.872 4.78356 30.364 5.62356 30.424ZM5.13156 27.988L6.57156 28.108L6.52356 28.66C6.48756 29.152 6.19956 29.572 5.69556 29.524C5.31156 29.488 5.01156 29.26 5.05956 28.564C5.08356 28.408 5.09556 28.216 5.13156 27.988Z" fill="#102D69"/>
<path d="M44.2636 49.4561L45.3196 51.1721L44.8156 51.4841L43.3876 50.9441C42.6676 50.6561 41.9596 50.5721 41.4556 51.1361L41.8516 51.7721C42.0916 51.5081 42.4756 51.5201 43.0276 51.7121L44.5996 52.2641L44.1076 55.2041L44.9716 54.7001L45.3316 52.1081L45.7516 51.8441L46.8196 53.5601L47.5156 53.0681L44.9836 48.9761L44.2636 49.4561Z" fill="#102D69"/>
<path d="M39.5837 51.9519L38.1077 56.1519L37.0277 52.7799L36.1997 52.9719L37.6877 57.5799L38.4917 57.3759L39.9437 53.2119L41.0237 56.5599L41.8037 56.2479L40.3277 51.6519L39.5837 51.9519Z" fill="#102D69"/>
<path d="M31.4237 54.9639C30.8837 54.9639 30.4517 55.3959 30.4517 55.9359C30.4517 56.4759 30.8837 56.9079 31.4237 56.9079C31.9637 56.9079 32.3957 56.4759 32.3957 55.9359C32.3957 55.4079 31.9637 54.9639 31.4237 54.9639Z" fill="#102D69"/>
<path d="M48.8595 45.1839L49.6515 49.5639L47.0475 47.1639L46.4355 47.7399L49.9995 51.0159L50.5995 50.4278L49.8075 46.0959L52.3995 48.4719L52.9275 47.8239L49.3635 44.5479L48.8595 45.1839Z" fill="#102D69"/>
<path d="M23.0357 53.344C22.8437 53.992 23.1317 54.412 23.6237 54.76C23.2277 54.844 22.8197 55.048 22.6517 55.612C22.5557 55.936 22.5917 56.224 22.7357 56.488C22.9277 56.836 23.2997 57.136 23.8277 57.292L25.6037 57.748L26.9477 53.104L25.1237 52.576C24.1037 52.264 23.2877 52.504 23.0357 53.344ZM24.1637 56.56C23.6357 56.404 23.4077 56.092 23.5157 55.732C23.5397 55.648 23.5757 55.576 23.6117 55.516C23.6117 55.516 23.6237 55.516 23.6237 55.504C23.6597 55.444 23.7077 55.408 23.7677 55.372C23.8877 55.3 24.0317 55.264 24.2117 55.276C24.3317 55.276 24.4517 55.3 24.5837 55.336L25.3757 55.564L25.0157 56.8L24.1637 56.56ZM24.6077 54.592C23.9597 54.4 23.7197 54.076 23.8277 53.68C23.9237 53.356 24.1757 53.2 24.5237 53.224C24.6437 53.224 24.7757 53.248 24.9077 53.296L25.9397 53.596L25.5677 54.88L24.6077 54.592Z" fill="#102D69"/>
<path d="M12.5236 18.9157C13.6756 17.1157 15.0796 15.4957 16.6876 14.0917L16.0876 13.5637L12.9916 10.8877C12.7876 11.0797 12.5716 11.2717 12.3796 11.4757L15.4756 14.1397C15.0076 14.5837 14.5636 15.0397 14.1316 15.5197L11.0596 12.8677C10.8676 13.0837 10.6876 13.2997 10.4956 13.5157L13.5676 16.1677C13.1596 16.6477 12.7756 17.1517 12.4156 17.6797L9.31964 15.0157C9.15164 15.2437 8.99564 15.4837 8.82764 15.7117L11.9236 18.3877L12.5236 18.9157Z" fill="#102D69"/>
<path d="M52.3758 39.1359L54.0798 40.1079C54.6558 40.4319 55.3398 40.8039 55.9038 41.1159L55.8918 41.1279C55.2798 40.9839 51.7278 40.5519 51.7278 40.5519L51.4158 41.1999C51.4158 41.1999 53.8638 43.8879 54.3318 44.2959L54.3198 44.3199C53.7198 44.0199 53.0358 43.7199 52.4598 43.4679L50.6358 42.6759L50.1558 43.4439L54.6678 45.3279L55.2798 44.2839C55.2798 44.2839 53.0118 41.8119 52.5918 41.4639L52.6038 41.4399C53.1438 41.5599 56.4438 41.9199 56.4438 41.9199L56.9118 40.7799L52.6878 38.2959L52.3758 39.1359Z" fill="#102D69"/>
<path d="M56.4197 32.8721C55.0517 32.6321 53.7557 33.4601 53.5037 34.9361C53.2397 36.4121 54.1877 37.6481 55.5437 37.8881C56.9117 38.1281 58.2077 37.3001 58.4597 35.8241C58.7117 34.3481 57.7637 33.1001 56.4197 32.8721ZM57.6797 35.6681C57.6437 35.9081 57.5477 36.1241 57.4277 36.3041C57.0677 36.8441 56.3837 37.1201 55.6877 37.0001C54.8597 36.8561 54.2717 36.2201 54.2477 35.4281C54.2477 35.3201 54.2477 35.2001 54.2717 35.0801C54.3077 34.8401 54.4037 34.6241 54.5237 34.4441C54.8837 33.9041 55.5677 33.6281 56.2637 33.7481C57.2117 33.9161 57.8477 34.7201 57.6797 35.6681Z" fill="#102D69"/>
<path d="M12.8836 43.7201C11.6716 41.9561 10.7356 40.0361 10.0756 37.9961L9.35559 38.3441L5.68359 40.1441C5.77959 40.4081 5.87559 40.6721 5.98359 40.9481L9.64359 39.1361C9.87159 39.7361 10.1116 40.3361 10.3876 40.9121L6.73959 42.7001C6.85959 42.9641 6.99159 43.2161 7.11159 43.4681L10.7596 41.6801C11.0476 42.2441 11.3596 42.7961 11.6956 43.3361L8.04759 45.1481C8.19159 45.3881 8.34759 45.6281 8.50359 45.8681L12.1756 44.0681L12.8836 43.7201Z" fill="#102D69"/>
<path d="M9.54762 36.184L8.33562 35.884C8.25162 35.512 8.19162 35.128 8.13162 34.756C8.05962 34.384 8.01162 34 7.97562 33.616L9.03162 32.956L8.97162 32.02L4.41162 34.936L4.53162 35.716L9.77562 37.06L9.54762 36.184ZM7.25562 34.06C7.29162 34.336 7.32762 34.612 7.37562 34.888C7.42362 35.164 7.47162 35.428 7.51962 35.704L5.47962 35.188L7.25562 34.06Z" fill="#102D69"/>
<path d="M8.22772 22.7317C8.76772 22.7797 9.23572 22.3957 9.29572 21.8557C9.34372 21.3157 8.95972 20.8477 8.41972 20.7877C7.87972 20.7397 7.41172 21.1237 7.35172 21.6637C7.29172 22.2037 7.68772 22.6717 8.22772 22.7317Z" fill="#102D69"/>
<path d="M17.733 48.9029L14.938 52.8789L15.635 53.3689L18.43 49.3929L17.733 48.9029Z" fill="#102D69"/>
<path d="M14.9835 46.1799C14.3595 45.5079 13.5315 45.2559 12.7635 45.3639L12.8835 46.2159C13.4235 46.1079 13.9875 46.2519 14.3955 46.7079C15.0555 47.4159 14.9475 48.4599 14.2515 49.0959C13.5435 49.7439 12.5235 49.7799 11.8635 49.0719C11.4555 48.6399 11.3475 48.0759 11.4795 47.5599L10.6275 47.3799C10.4715 48.1239 10.6755 48.9399 11.2755 49.5879C12.2955 50.6799 13.8555 50.6799 14.8515 49.7559C15.8715 48.8079 15.9915 47.2839 14.9835 46.1799Z" fill="#102D69"/>
<path d="M18.4278 51.2441C17.9358 52.0841 18.2958 52.9241 19.2318 53.4881L19.8918 53.8841L19.0038 55.3961L19.7358 55.8281L22.2078 51.6401L20.8158 50.8001C19.8438 50.2361 18.9198 50.4041 18.4278 51.2441ZM20.2638 53.2361L19.6278 52.8641C19.0758 52.5401 18.8958 52.1201 19.1478 51.6881C19.2918 51.4481 19.4718 51.3161 19.6878 51.2801C19.9038 51.2441 20.1558 51.3161 20.4318 51.4721L21.0798 51.8561L20.2638 53.2361Z" fill="#102D69"/>
</g>
<defs>
<clipPath id="clip0_2335_7668">
<rect width="61.224" height="61.224" fill="white" transform="translate(0.799805 0.399902)"/>
</clipPath>
</defs>
</svg>
