<svg width="14" height="158" viewBox="0 0 14 158" fill="none" xmlns="http://www.w3.org/2000/svg">
<path d="M2.805 3.32766C2.805 3.06766 2.84 2.83266 2.91 2.62266C2.98 2.42266 3.045 2.27266 3.105 2.17266H5.01C4.95 2.28266 4.895 2.41266 4.845 2.56266C4.805 2.72266 4.785 2.91766 4.785 3.14766C4.785 3.85766 5.08 4.28766 5.67 4.43766L13.71 0.147656V2.78766L8.13 5.69766L13.71 7.87266V10.3327L5.85 6.98766C5.3 6.74766 4.83 6.50266 4.44 6.25266C4.06 6.01266 3.745 5.74266 3.495 5.44266C3.255 5.15266 3.08 4.83266 2.97 4.48266C2.86 4.14266 2.805 3.75766 2.805 3.32766ZM10.755 10.7446V13.8346L5.115 15.4396V15.4996L10.755 17.1046V20.1946H3V18.1846H8.895V18.1396L3 16.4746L3 14.4646L8.895 12.7996V12.7546L3 12.7546V10.7446L10.755 10.7446ZM10.755 21.8188V23.9488H7.935V26.9638H10.755V29.0938H3V26.9638H6.255V23.9488H3V21.8188H10.755ZM10.755 30.7104V32.8404H8.085V34.8954C8.085 35.2854 8.03 35.6504 7.92 35.9904C7.82 36.3404 7.66 36.6404 7.44 36.8904C7.23 37.1504 6.965 37.3554 6.645 37.5054C6.335 37.6554 5.97 37.7304 5.55 37.7304C5.12 37.7304 4.745 37.6554 4.425 37.5054C4.105 37.3654 3.84 37.1604 3.63 36.8904C3.42 36.6304 3.26 36.3204 3.15 35.9604C3.05 35.6104 3 35.2254 3 34.8054V30.7104H10.755ZM4.47 34.2954C4.47 34.6854 4.555 34.9954 4.725 35.2254C4.895 35.4654 5.17 35.5854 5.55 35.5854C5.93 35.5854 6.205 35.4604 6.375 35.2104C6.555 34.9604 6.645 34.6504 6.645 34.2804V32.8404H4.47V34.2954ZM10.755 38.6454V40.7604H3V38.6454H10.755ZM10.755 42.3852V45.4752L5.115 47.0802V47.1402L10.755 48.7452V51.8352H3V49.8252H8.895V49.7802L3 48.1152V46.1052L8.895 44.4402V44.3952H3L3 42.3852H10.755ZM2.805 61.3242C2.805 60.5742 2.945 59.9542 3.225 59.4642C3.505 58.9742 3.87 58.5842 4.32 58.2942C4.77 58.0142 5.275 57.8192 5.835 57.7092C6.395 57.5992 6.96 57.5442 7.53 57.5442C8.21 57.5442 8.86 57.5742 9.48 57.6342C10.11 57.6942 10.68 57.8342 11.19 58.0542C11.7 58.2742 12.14 58.5892 12.51 58.9992C12.89 59.4192 13.175 59.9842 13.365 60.6942C13.425 60.9142 13.465 61.1692 13.485 61.4592C13.505 61.7592 13.53 62.0442 13.56 62.3142C13.59 62.5842 13.63 62.8092 13.68 62.9892C13.74 63.1792 13.835 63.2792 13.965 63.2892V65.1642C13.485 65.1242 13.105 65.0192 12.825 64.8492C12.545 64.6892 12.32 64.4542 12.15 64.1442C11.99 63.8342 11.87 63.4542 11.79 63.0042C11.72 62.5542 11.655 62.0242 11.595 61.4142C11.545 60.9342 11.43 60.5292 11.25 60.1992C11.07 59.8692 10.84 59.5992 10.56 59.3892C10.29 59.1792 9.98 59.0192 9.63 58.9092C9.29 58.8092 8.93 58.7392 8.55 58.6992V58.7442C8.81 58.8342 9.07 58.9592 9.33 59.1192C9.59 59.2892 9.825 59.4992 10.035 59.7492C10.245 59.9992 10.415 60.2942 10.545 60.6342C10.685 60.9742 10.755 61.3642 10.755 61.8042C10.755 62.2942 10.66 62.7542 10.47 63.1842C10.28 63.6242 10.01 64.0042 9.66 64.3242C9.31 64.6442 8.89 64.8942 8.4 65.0742C7.92 65.2642 7.38 65.3592 6.78 65.3592C6.17 65.3592 5.62 65.2642 5.13 65.0742C4.64 64.8942 4.22 64.6292 3.87 64.2792C3.53 63.9292 3.265 63.5042 3.075 63.0042C2.895 62.5042 2.805 61.9442 2.805 61.3242ZM4.395 61.4742C4.395 62.0142 4.6 62.4392 5.01 62.7492C5.42 63.0692 6.015 63.2292 6.795 63.2292C7.555 63.2292 8.145 63.0742 8.565 62.7642C8.995 62.4542 9.21 62.0142 9.21 61.4442C9.21 60.9042 8.995 60.4792 8.565 60.1692C8.135 59.8592 7.54 59.7042 6.78 59.7042C6 59.7042 5.405 59.8592 4.995 60.1692C4.595 60.4892 4.395 60.9242 4.395 61.4742ZM10.755 66.7455V68.8755H8.085V70.9305C8.085 71.3205 8.03 71.6855 7.92 72.0255C7.82 72.3755 7.66 72.6755 7.44 72.9255C7.23 73.1855 6.965 73.3905 6.645 73.5405C6.335 73.6905 5.97 73.7655 5.55 73.7655C5.12 73.7655 4.745 73.6905 4.425 73.5405C4.105 73.4005 3.84 73.1955 3.63 72.9255C3.42 72.6655 3.26 72.3555 3.15 71.9955C3.05 71.6455 3 71.2605 3 70.8405V66.7455H10.755ZM4.47 70.3305C4.47 70.7205 4.555 71.0305 4.725 71.2605C4.895 71.5005 5.17 71.6205 5.55 71.6205C5.93 71.6205 6.205 71.4955 6.375 71.2455C6.555 70.9955 6.645 70.6855 6.645 70.3155V68.8755H4.47V70.3305ZM10.755 74.6805V76.7955H3V74.6805H10.755ZM9.15 80.3104V77.7604H10.755L10.755 84.9904H9.15V82.4404H3V80.3104H9.15ZM10.755 85.9496V88.0796H8.085V90.1346C8.085 90.5246 8.03 90.8896 7.92 91.2296C7.82 91.5796 7.66 91.8796 7.44 92.1296C7.23 92.3896 6.965 92.5946 6.645 92.7446C6.335 92.8946 5.97 92.9696 5.55 92.9696C5.12 92.9696 4.745 92.8946 4.425 92.7446C4.105 92.6046 3.84 92.3996 3.63 92.1296C3.42 91.8696 3.26 91.5596 3.15 91.1996C3.05 90.8496 3 90.4646 3 90.0446V85.9496H10.755ZM4.47 89.5346C4.47 89.9246 4.555 90.2346 4.725 90.4646C4.895 90.7046 5.17 90.8246 5.55 90.8246C5.93 90.8246 6.205 90.6996 6.375 90.4496C6.555 90.1996 6.645 89.8896 6.645 89.5196V88.0796H4.47V89.5346ZM10.755 98.4022V102.857C10.755 103.197 10.715 103.517 10.635 103.817C10.565 104.117 10.45 104.377 10.29 104.597C10.14 104.827 9.94 105.007 9.69 105.137C9.44 105.267 9.145 105.332 8.805 105.332C8.425 105.332 8.095 105.237 7.815 105.047C7.545 104.857 7.34 104.602 7.2 104.282C7.09 104.682 6.88 105.017 6.57 105.287C6.27 105.557 5.85 105.692 5.31 105.692C4.93 105.692 4.595 105.622 4.305 105.482C4.025 105.352 3.785 105.167 3.585 104.927C3.395 104.687 3.25 104.407 3.15 104.087C3.05 103.767 3 103.427 3 103.067L3 98.4022H10.755ZM4.38 102.077C4.38 102.257 4.39 102.432 4.41 102.602C4.44 102.772 4.49 102.922 4.56 103.052C4.63 103.182 4.73 103.287 4.86 103.367C5 103.447 5.18 103.487 5.4 103.487C5.62 103.487 5.8 103.442 5.94 103.352C6.08 103.272 6.185 103.162 6.255 103.022C6.325 102.882 6.37 102.722 6.39 102.542C6.42 102.362 6.435 102.177 6.435 101.987L6.435 100.502H4.38L4.38 102.077ZM7.635 101.912C7.635 102.072 7.645 102.227 7.665 102.377C7.685 102.527 7.725 102.662 7.785 102.782C7.855 102.902 7.945 102.997 8.055 103.067C8.175 103.137 8.335 103.172 8.535 103.172C8.725 103.172 8.875 103.137 8.985 103.067C9.105 102.997 9.195 102.902 9.255 102.782C9.315 102.672 9.355 102.537 9.375 102.377C9.395 102.227 9.405 102.072 9.405 101.912L9.405 100.502H7.635L7.635 101.912ZM2.805 114.908C2.805 114.318 2.9 113.783 3.09 113.303C3.29 112.823 3.565 112.413 3.915 112.073C4.265 111.733 4.68 111.468 5.16 111.278C5.65 111.088 6.185 110.993 6.765 110.993C7.365 110.993 7.92 111.078 8.43 111.248C8.95 111.428 9.395 111.688 9.765 112.028C10.145 112.368 10.44 112.783 10.65 113.273C10.86 113.763 10.965 114.323 10.965 114.953C10.965 115.413 10.905 115.853 10.785 116.273C10.665 116.703 10.48 117.083 10.23 117.413C9.99 117.753 9.685 118.028 9.315 118.238C8.945 118.448 8.515 118.568 8.025 118.598V116.513C8.915 116.373 9.36 115.848 9.36 114.938C9.36 114.598 9.28 114.313 9.12 114.083C8.97 113.853 8.77 113.663 8.52 113.513C8.28 113.373 8.01 113.273 7.71 113.213C7.41 113.153 7.12 113.123 6.84 113.123C6.56 113.123 6.275 113.153 5.985 113.213C5.695 113.273 5.43 113.368 5.19 113.498C4.96 113.638 4.77 113.823 4.62 114.053C4.47 114.283 4.395 114.563 4.395 114.893C4.395 115.403 4.535 115.793 4.815 116.063C5.105 116.343 5.49 116.518 5.97 116.588V118.643C4.94 118.503 4.155 118.103 3.615 117.443C3.075 116.783 2.805 115.938 2.805 114.908ZM2.805 123.431C2.805 122.821 2.9 122.271 3.09 121.781C3.29 121.291 3.57 120.876 3.93 120.536C4.29 120.196 4.72 119.931 5.22 119.741C5.72 119.561 6.27 119.471 6.87 119.471C7.45 119.471 7.99 119.566 8.49 119.756C8.99 119.946 9.42 120.216 9.78 120.566C10.15 120.916 10.44 121.331 10.65 121.811C10.86 122.301 10.965 122.841 10.965 123.431C10.965 124.051 10.85 124.596 10.62 125.066C10.39 125.546 10.08 125.941 9.69 126.251C9.31 126.571 8.865 126.811 8.355 126.971C7.845 127.131 7.315 127.211 6.765 127.211C6.695 127.211 6.625 127.211 6.555 127.211C6.495 127.211 6.43 127.206 6.36 127.196V121.601C5.67 121.631 5.17 121.806 4.86 122.126C4.55 122.446 4.395 122.906 4.395 123.506C4.395 123.936 4.5 124.306 4.71 124.616C4.93 124.926 5.16 125.116 5.4 125.186V127.061C4.47 126.761 3.805 126.301 3.405 125.681C3.005 125.061 2.805 124.311 2.805 123.431ZM7.71 125.066C8.25 124.966 8.66 124.786 8.94 124.526C9.22 124.276 9.36 123.891 9.36 123.371C9.36 123.021 9.3 122.736 9.18 122.516C9.07 122.296 8.93 122.116 8.76 121.976C8.59 121.846 8.41 121.751 8.22 121.691C8.03 121.641 7.86 121.611 7.71 121.601V125.066ZM4.605 127.754V128.684C4.825 128.794 5.1 128.904 5.43 129.014C5.76 129.134 6.13 129.239 6.54 129.329C6.95 129.429 7.395 129.509 7.875 129.569C8.355 129.629 8.86 129.659 9.39 129.659H10.755V135.854H4.605V136.859H0.87V134.864H3L3 129.749H0.87V127.754H4.605ZM4.605 133.724H9.165V131.639H8.97C8.49 131.639 8.03 131.609 7.59 131.549C7.15 131.499 6.74 131.429 6.36 131.339C5.99 131.249 5.655 131.154 5.355 131.054C5.055 130.954 4.805 130.859 4.605 130.769V133.724ZM2.88 138.15C2.88 138.06 2.895 137.92 2.925 137.73C2.955 137.54 2.99 137.39 3.03 137.28H4.635C4.615 137.34 4.6 137.41 4.59 137.49C4.59 137.57 4.59 137.65 4.59 137.73C4.59 137.91 4.645 138.07 4.755 138.21C4.875 138.36 5.1 138.48 5.43 138.57C5.76 138.67 6.23 138.745 6.84 138.795C7.45 138.855 8.25 138.885 9.24 138.885H10.755V145.185H3V143.055H9.15V140.865C8.05 140.825 7.105 140.76 6.315 140.67C5.525 140.58 4.875 140.435 4.365 140.235C3.855 140.045 3.48 139.78 3.24 139.44C3 139.11 2.88 138.68 2.88 138.15ZM2.805 150.384C2.805 149.774 2.9 149.224 3.09 148.734C3.29 148.244 3.57 147.829 3.93 147.489C4.29 147.149 4.72 146.884 5.22 146.694C5.72 146.514 6.27 146.424 6.87 146.424C7.45 146.424 7.99 146.519 8.49 146.709C8.99 146.899 9.42 147.169 9.78 147.519C10.15 147.869 10.44 148.284 10.65 148.764C10.86 149.254 10.965 149.794 10.965 150.384C10.965 151.004 10.85 151.549 10.62 152.019C10.39 152.499 10.08 152.894 9.69 153.204C9.31 153.524 8.865 153.764 8.355 153.924C7.845 154.084 7.315 154.164 6.765 154.164C6.695 154.164 6.625 154.164 6.555 154.164C6.495 154.164 6.43 154.159 6.36 154.149V148.554C5.67 148.584 5.17 148.759 4.86 149.079C4.55 149.399 4.395 149.859 4.395 150.459C4.395 150.889 4.5 151.259 4.71 151.569C4.93 151.879 5.16 152.069 5.4 152.139V154.014C4.47 153.714 3.805 153.254 3.405 152.634C3.005 152.014 2.805 151.264 2.805 150.384ZM7.71 152.019C8.25 151.919 8.66 151.739 8.94 151.479C9.22 151.229 9.36 150.844 9.36 150.324C9.36 149.974 9.3 149.689 9.18 149.469C9.07 149.249 8.93 149.069 8.76 148.929C8.59 148.799 8.41 148.704 8.22 148.644C8.03 148.594 7.86 148.564 7.71 148.554V152.019ZM5.31 155.518V157.873H3V155.518H5.31ZM10.83 157.798L6.21 157.213V156.148L10.83 155.578H13.71V157.798H10.83Z" fill="white"/>
</svg>
