<svg width="27" height="280" viewBox="0 0 27 280" fill="none" xmlns="http://www.w3.org/2000/svg">
<path d="M21.448 270.01C21.448 271.56 21.1867 272.941 20.664 274.154C20.1227 275.368 19.3853 276.394 18.452 277.234C17.5187 278.074 16.4267 278.718 15.176 279.166C13.9067 279.614 12.544 279.838 11.088 279.838C9.61333 279.838 8.232 279.614 6.944 279.166C5.656 278.718 4.536 278.074 3.584 277.234C2.632 276.394 1.88533 275.368 1.344 274.154C0.802666 272.941 0.532 271.56 0.532 270.01C0.532 268.928 0.690666 267.892 1.008 266.902C1.32533 265.913 1.792 265.036 2.408 264.27C3.00533 263.486 3.752 262.842 4.648 262.338C5.544 261.834 6.57067 261.517 7.728 261.386V265.642C7.224 265.717 6.76667 265.885 6.356 266.146C5.92667 266.408 5.55333 266.734 5.236 267.126C4.91867 267.518 4.676 267.966 4.508 268.47C4.32133 268.956 4.228 269.469 4.228 270.01C4.228 271 4.424 271.84 4.816 272.53C5.18933 273.221 5.70267 273.781 6.356 274.21C6.99067 274.64 7.71867 274.957 8.54 275.162C9.36133 275.349 10.2107 275.442 11.088 275.442C11.928 275.442 12.7493 275.349 13.552 275.162C14.336 274.957 15.0453 274.64 15.68 274.21C16.3147 273.781 16.828 273.221 17.22 272.53C17.5933 271.84 17.78 271 17.78 270.01C17.78 268.666 17.3693 267.621 16.548 266.874C15.7267 266.109 14.644 265.642 13.3 265.474V261.218C14.5693 261.33 15.708 261.62 16.716 262.086C17.7053 262.553 18.5547 263.169 19.264 263.934C19.9733 264.7 20.5147 265.596 20.888 266.622C21.2613 267.649 21.448 268.778 21.448 270.01ZM6.524 258.636V254.828H16.324L6.524 249.368V244.86H21V248.668H11.2L21 254.128V258.636H6.524ZM21.224 241.231C21.224 241.399 21.196 241.661 21.14 242.015C21.084 242.37 21.0187 242.65 20.944 242.855H17.948C17.9853 242.743 18.0133 242.613 18.032 242.463C18.032 242.314 18.032 242.165 18.032 242.015C18.032 241.679 17.9293 241.381 17.724 241.119C17.5 240.839 17.08 240.615 16.464 240.447C15.848 240.261 14.9707 240.121 13.832 240.027C12.6933 239.915 11.2 239.859 9.352 239.859H6.524L6.524 228.099H21V232.075H9.52V236.163C11.5733 236.238 13.3373 236.359 14.812 236.527C16.2867 236.695 17.5 236.966 18.452 237.339C19.404 237.694 20.104 238.189 20.552 238.823C21 239.439 21.224 240.242 21.224 241.231ZM21.364 220.774C21.364 221.464 21.28 222.108 21.112 222.706C20.944 223.303 20.6827 223.826 20.328 224.274C19.9733 224.722 19.5253 225.076 18.984 225.338C18.4427 225.58 17.7987 225.702 17.052 225.702C16.2307 225.702 15.5587 225.562 15.036 225.282C14.4947 224.983 14.0653 224.61 13.748 224.162C13.4307 223.695 13.1973 223.172 13.048 222.594C12.88 221.996 12.7493 221.399 12.656 220.802C12.5627 220.204 12.488 219.616 12.432 219.038C12.376 218.459 12.292 217.946 12.18 217.498C12.068 217.05 11.9093 216.695 11.704 216.434C11.48 216.172 11.1627 216.051 10.752 216.07C10.3413 216.07 10.0053 216.144 9.744 216.294C9.48267 216.424 9.28667 216.611 9.156 216.854C9.00667 217.078 8.91333 217.348 8.876 217.666C8.82 217.964 8.792 218.291 8.792 218.646C8.792 219.43 8.96 220.046 9.296 220.494C9.632 220.942 10.192 221.203 10.976 221.278V225.254C10.0613 225.198 9.296 224.964 8.68 224.554C8.04533 224.143 7.54133 223.62 7.168 222.986C6.79467 222.351 6.53333 221.642 6.384 220.858C6.216 220.074 6.132 219.271 6.132 218.45C6.132 217.722 6.188 216.984 6.3 216.238C6.39333 215.491 6.58933 214.81 6.888 214.194C7.18667 213.578 7.60667 213.074 8.148 212.682C8.68933 212.29 9.38933 212.094 10.248 212.094H17.78C18.4333 212.094 19.0587 212.056 19.656 211.982C20.2533 211.907 20.7013 211.776 21 211.59V215.622C20.776 215.696 20.552 215.762 20.328 215.818C20.0853 215.855 19.8427 215.883 19.6 215.902C20.2533 216.536 20.7107 217.283 20.972 218.142C21.2333 219 21.364 219.878 21.364 220.774ZM18.732 219.29C18.732 218.506 18.6013 217.899 18.34 217.47C18.0787 217.04 17.7707 216.723 17.416 216.518C17.0427 216.312 16.6693 216.191 16.296 216.154C15.9227 216.098 15.624 216.07 15.4 216.07H13.916C14.0653 216.238 14.1867 216.443 14.28 216.686C14.3547 216.928 14.42 217.199 14.476 217.498C14.532 217.796 14.5787 218.104 14.616 218.422C14.6533 218.739 14.7 219.056 14.756 219.374C14.812 219.691 14.8867 219.99 14.98 220.27C15.0733 220.55 15.204 220.802 15.372 221.026C15.5213 221.231 15.7173 221.399 15.96 221.53C16.2027 221.66 16.5107 221.726 16.884 221.726C17.2573 221.726 17.5653 221.66 17.808 221.53C18.032 221.399 18.2187 221.222 18.368 220.998C18.4987 220.774 18.592 220.512 18.648 220.214C18.704 219.915 18.732 219.607 18.732 219.29ZM16.688 208.84V204.444H21V208.84H16.688ZM21.448 184.042C21.448 185.591 21.1867 186.972 20.664 188.186C20.1227 189.399 19.3853 190.426 18.452 191.266C17.5187 192.106 16.4267 192.75 15.176 193.198C13.9067 193.646 12.544 193.87 11.088 193.87C9.61333 193.87 8.232 193.646 6.944 193.198C5.656 192.75 4.536 192.106 3.584 191.266C2.632 190.426 1.88533 189.399 1.344 188.186C0.802666 186.972 0.532 185.591 0.532 184.042C0.532 182.959 0.690666 181.923 1.008 180.934C1.32533 179.944 1.792 179.067 2.408 178.302C3.00533 177.518 3.752 176.874 4.648 176.37C5.544 175.866 6.57067 175.548 7.728 175.418L7.728 179.674C7.224 179.748 6.76667 179.916 6.356 180.178C5.92667 180.439 5.55333 180.766 5.236 181.158C4.91867 181.55 4.676 181.998 4.508 182.502C4.32133 182.987 4.228 183.5 4.228 184.042C4.228 185.031 4.424 185.871 4.816 186.562C5.18933 187.252 5.70267 187.812 6.356 188.242C6.99067 188.671 7.71867 188.988 8.54 189.194C9.36133 189.38 10.2107 189.474 11.088 189.474C11.928 189.474 12.7493 189.38 13.552 189.194C14.336 188.988 15.0453 188.671 15.68 188.242C16.3147 187.812 16.828 187.252 17.22 186.562C17.5933 185.871 17.78 185.031 17.78 184.042C17.78 182.698 17.3693 181.652 16.548 180.906C15.7267 180.14 14.644 179.674 13.3 179.506V175.25C14.5693 175.362 15.708 175.651 16.716 176.118C17.7053 176.584 18.5547 177.2 19.264 177.966C19.9733 178.731 20.5147 179.627 20.888 180.654C21.2613 181.68 21.448 182.81 21.448 184.042ZM6.524 172.668V168.692H12.432L6.524 163.372V158.696L12.908 164.744L21 157.912V162.728L14.98 167.852L15.904 168.692H21V172.668H6.524ZM21.364 149.562C21.364 150.7 21.1867 151.727 20.832 152.642C20.4773 153.556 19.9733 154.34 19.32 154.994C18.648 155.647 17.8453 156.151 16.912 156.506C15.9787 156.86 14.9333 157.038 13.776 157.038C12.6187 157.038 11.5733 156.86 10.64 156.506C9.688 156.151 8.88533 155.647 8.232 154.994C7.56 154.34 7.04667 153.556 6.692 152.642C6.31867 151.727 6.132 150.7 6.132 149.562C6.132 148.423 6.31867 147.396 6.692 146.482C7.04667 145.548 7.56 144.755 8.232 144.102C8.88533 143.448 9.688 142.944 10.64 142.59C11.5733 142.235 12.6187 142.058 13.776 142.058C14.9333 142.058 15.9787 142.235 16.912 142.59C17.8453 142.944 18.648 143.448 19.32 144.102C19.9733 144.755 20.4773 145.548 20.832 146.482C21.1867 147.396 21.364 148.423 21.364 149.562ZM18.396 149.562C18.396 148.89 18.2653 148.33 18.004 147.882C17.7427 147.415 17.3973 147.051 16.968 146.79C16.52 146.51 16.0253 146.314 15.484 146.202C14.924 146.09 14.3547 146.034 13.776 146.034C13.1973 146.034 12.628 146.09 12.068 146.202C11.508 146.314 11.0133 146.51 10.584 146.79C10.1547 147.051 9.80933 147.415 9.548 147.882C9.268 148.33 9.128 148.89 9.128 149.562C9.128 150.234 9.268 150.794 9.548 151.242C9.80933 151.69 10.1547 152.054 10.584 152.334C11.0133 152.595 11.508 152.782 12.068 152.894C12.628 153.006 13.1973 153.062 13.776 153.062C14.3547 153.062 14.924 153.006 15.484 152.894C16.0253 152.782 16.52 152.595 16.968 152.334C17.3973 152.054 17.7427 151.69 18.004 151.242C18.2653 150.794 18.396 150.234 18.396 149.562ZM6.524 139.472V135.692H8.372V135.636C7.588 135.151 7.01867 134.535 6.664 133.788C6.30933 133.042 6.132 132.22 6.132 131.324C6.132 130.186 6.34667 129.206 6.776 128.384C7.20533 127.563 7.77467 126.882 8.484 126.34C9.19333 125.799 10.024 125.398 10.976 125.136C11.9093 124.875 12.8893 124.744 13.916 124.744C14.8867 124.744 15.82 124.875 16.716 125.136C17.612 125.398 18.4053 125.799 19.096 126.34C19.7867 126.863 20.3373 127.526 20.748 128.328C21.1587 129.112 21.364 130.036 21.364 131.1C21.364 131.996 21.1867 132.827 20.832 133.592C20.4587 134.339 19.9173 134.955 19.208 135.44V135.496H26.068V139.472H6.524ZM18.396 132.164C18.396 131.511 18.2653 130.97 18.004 130.54C17.7427 130.092 17.4067 129.738 16.996 129.476C16.5667 129.196 16.0813 129 15.54 128.888C14.98 128.776 14.4013 128.72 13.804 128.72C13.2253 128.72 12.656 128.786 12.096 128.916C11.536 129.028 11.0413 129.224 10.612 129.504C10.164 129.784 9.80933 130.148 9.548 130.596C9.268 131.026 9.128 131.558 9.128 132.192C9.128 132.846 9.268 133.396 9.548 133.844C9.80933 134.274 10.1547 134.628 10.584 134.908C11.0133 135.17 11.5173 135.356 12.096 135.468C12.656 135.58 13.2253 135.636 13.804 135.636C14.4013 135.636 14.98 135.58 15.54 135.468C16.0813 135.338 16.5667 135.142 16.996 134.88C17.4067 134.6 17.7427 134.246 18.004 133.816C18.2653 133.368 18.396 132.818 18.396 132.164ZM21.364 115.327C21.364 116.466 21.1867 117.493 20.832 118.407C20.4773 119.322 19.9733 120.106 19.32 120.759C18.648 121.413 17.8453 121.917 16.912 122.271C15.9787 122.626 14.9333 122.803 13.776 122.803C12.6187 122.803 11.5733 122.626 10.64 122.271C9.688 121.917 8.88533 121.413 8.232 120.759C7.56 120.106 7.04667 119.322 6.692 118.407C6.31867 117.493 6.132 116.466 6.132 115.327C6.132 114.189 6.31867 113.162 6.692 112.247C7.04667 111.314 7.56 110.521 8.232 109.867C8.88533 109.214 9.688 108.71 10.64 108.355C11.5733 108.001 12.6187 107.823 13.776 107.823C14.9333 107.823 15.9787 108.001 16.912 108.355C17.8453 108.71 18.648 109.214 19.32 109.867C19.9733 110.521 20.4773 111.314 20.832 112.247C21.1867 113.162 21.364 114.189 21.364 115.327ZM18.396 115.327C18.396 114.655 18.2653 114.095 18.004 113.647C17.7427 113.181 17.3973 112.817 16.968 112.555C16.52 112.275 16.0253 112.079 15.484 111.967C14.924 111.855 14.3547 111.799 13.776 111.799C13.1973 111.799 12.628 111.855 12.068 111.967C11.508 112.079 11.0133 112.275 10.584 112.555C10.1547 112.817 9.80933 113.181 9.548 113.647C9.268 114.095 9.128 114.655 9.128 115.327C9.128 115.999 9.268 116.559 9.548 117.007C9.80933 117.455 10.1547 117.819 10.584 118.099C11.0133 118.361 11.508 118.547 12.068 118.659C12.628 118.771 13.1973 118.827 13.776 118.827C14.3547 118.827 14.924 118.771 15.484 118.659C16.0253 118.547 16.52 118.361 16.968 118.099C17.3973 117.819 17.7427 117.455 18.004 117.007C18.2653 116.559 18.396 115.999 18.396 115.327ZM21.364 98.378C21.364 99.4793 21.1867 100.478 20.832 101.374C20.4587 102.27 19.9453 103.035 19.292 103.67C18.6387 104.305 17.864 104.799 16.968 105.154C16.0533 105.509 15.0547 105.686 13.972 105.686C12.852 105.686 11.816 105.527 10.864 105.21C9.89333 104.874 9.06267 104.389 8.372 103.754C7.66267 103.119 7.112 102.345 6.72 101.43C6.328 100.515 6.132 99.47 6.132 98.294C6.132 97.4353 6.244 96.614 6.468 95.83C6.692 95.0273 7.03733 94.318 7.504 93.702C7.952 93.0673 8.52133 92.554 9.212 92.162C9.90267 91.77 10.7053 91.546 11.62 91.49V95.382C9.95867 95.6433 9.128 96.6233 9.128 98.322C9.128 98.9567 9.27733 99.4887 9.576 99.918C9.856 100.347 10.2293 100.702 10.696 100.982C11.144 101.243 11.648 101.43 12.208 101.542C12.768 101.654 13.3093 101.71 13.832 101.71C14.3547 101.71 14.8867 101.654 15.428 101.542C15.9693 101.43 16.464 101.253 16.912 101.01C17.3413 100.749 17.696 100.403 17.976 99.974C18.256 99.5447 18.396 99.022 18.396 98.406C18.396 97.454 18.1347 96.726 17.612 96.222C17.0707 95.6993 16.352 95.3727 15.456 95.242V91.406C17.3787 91.6673 18.844 92.414 19.852 93.646C20.86 94.878 21.364 96.4553 21.364 98.378ZM9.52 85.6319V90.3919H6.524V76.8959H9.52L9.52 81.6559H21V85.6319H9.52ZM6.524 75.1052V71.1292H11.508V67.2932C11.508 66.5652 11.6107 65.8839 11.816 65.2492C12.0027 64.5959 12.3013 64.0359 12.712 63.5692C13.104 63.0839 13.5987 62.7012 14.196 62.4212C14.7747 62.1412 15.456 62.0012 16.24 62.0012C17.0427 62.0012 17.7427 62.1412 18.34 62.4212C18.9373 62.6825 19.432 63.0652 19.824 63.5692C20.216 64.0545 20.5147 64.6332 20.72 65.3052C20.9067 65.9585 21 66.6772 21 67.4612V75.1052H6.524ZM18.256 68.4132C18.256 67.6852 18.0973 67.1065 17.78 66.6772C17.4627 66.2292 16.9493 66.0052 16.24 66.0052C15.5307 66.0052 15.0173 66.2385 14.7 66.7052C14.364 67.1719 14.196 67.7505 14.196 68.4412V71.1292H18.256V68.4132ZM16.688 59.5973V55.2013H21V59.5973H16.688ZM21.364 39.8954C21.364 40.3807 21.2987 40.8194 21.168 41.2114C21.0373 41.5847 20.916 41.8647 20.804 42.0514H17.248C17.36 41.8461 17.4627 41.6034 17.556 41.3234C17.6307 41.0247 17.668 40.6607 17.668 40.2314C17.668 38.9061 17.1173 38.1034 16.016 37.8234L1.008 45.8314V40.9034L11.424 35.4714L1.008 31.4114V26.8194L15.68 33.0634C16.7067 33.5114 17.584 33.9687 18.312 34.4354C19.0213 34.8834 19.6093 35.3874 20.076 35.9474C20.524 36.4887 20.8507 37.0861 21.056 37.7394C21.2613 38.3741 21.364 39.0927 21.364 39.8954ZM6.524 26.0505V20.2825L17.052 17.2865V17.1745L6.524 14.1785V8.4105H21V12.1625H9.996V12.2465L21 15.3545V19.1065L9.996 22.2145V22.2985H21V26.0505H6.524ZM16.688 5.21062V0.814625H21V5.21062H16.688Z" fill="white"/>
</svg>
