<svg width="27" height="163" viewBox="0 0 27 163" fill="none" xmlns="http://www.w3.org/2000/svg">
<path d="M4.704 156.362V162.354H1.008L1.008 145.974H4.704L4.704 151.966H21V156.362H4.704ZM21.364 139.777C21.364 140.467 21.28 141.111 21.112 141.709C20.944 142.306 20.6827 142.829 20.328 143.277C19.9733 143.725 19.5253 144.079 18.984 144.341C18.4427 144.583 17.7987 144.705 17.052 144.705C16.2307 144.705 15.5587 144.565 15.036 144.285C14.4947 143.986 14.0653 143.613 13.748 143.165C13.4307 142.698 13.1973 142.175 13.048 141.597C12.88 140.999 12.7493 140.402 12.656 139.805C12.5627 139.207 12.488 138.619 12.432 138.041C12.376 137.462 12.292 136.949 12.18 136.501C12.068 136.053 11.9093 135.698 11.704 135.437C11.48 135.175 11.1627 135.054 10.752 135.073C10.3413 135.073 10.0053 135.147 9.744 135.297C9.48267 135.427 9.28667 135.614 9.156 135.857C9.00667 136.081 8.91333 136.351 8.876 136.669C8.82 136.967 8.792 137.294 8.792 137.649C8.792 138.433 8.96 139.049 9.296 139.497C9.632 139.945 10.192 140.206 10.976 140.281V144.257C10.0613 144.201 9.296 143.967 8.68 143.557C8.04533 143.146 7.54133 142.623 7.168 141.989C6.79467 141.354 6.53333 140.645 6.384 139.861C6.216 139.077 6.132 138.274 6.132 137.453C6.132 136.725 6.188 135.987 6.3 135.241C6.39333 134.494 6.58933 133.813 6.888 133.197C7.18667 132.581 7.60667 132.077 8.148 131.685C8.68933 131.293 9.38933 131.097 10.248 131.097H17.78C18.4333 131.097 19.0587 131.059 19.656 130.985C20.2533 130.91 20.7013 130.779 21 130.593L21 134.625C20.776 134.699 20.552 134.765 20.328 134.821C20.0853 134.858 19.8427 134.886 19.6 134.905C20.2533 135.539 20.7107 136.286 20.972 137.145C21.2333 138.003 21.364 138.881 21.364 139.777ZM18.732 138.293C18.732 137.509 18.6013 136.902 18.34 136.473C18.0787 136.043 17.7707 135.726 17.416 135.521C17.0427 135.315 16.6693 135.194 16.296 135.157C15.9227 135.101 15.624 135.073 15.4 135.073H13.916C14.0653 135.241 14.1867 135.446 14.28 135.689C14.3547 135.931 14.42 136.202 14.476 136.501C14.532 136.799 14.5787 137.107 14.616 137.425C14.6533 137.742 14.7 138.059 14.756 138.377C14.812 138.694 14.8867 138.993 14.98 139.273C15.0733 139.553 15.204 139.805 15.372 140.029C15.5213 140.234 15.7173 140.402 15.96 140.533C16.2027 140.663 16.5107 140.729 16.884 140.729C17.2573 140.729 17.5653 140.663 17.808 140.533C18.032 140.402 18.2187 140.225 18.368 140.001C18.4987 139.777 18.592 139.515 18.648 139.217C18.704 138.918 18.732 138.61 18.732 138.293ZM21.364 121.122C21.364 122.522 21.1027 123.68 20.58 124.594C20.0573 125.509 19.376 126.237 18.536 126.778C17.696 127.301 16.7533 127.665 15.708 127.87C14.6627 128.076 13.608 128.178 12.544 128.178C11.2747 128.178 10.0613 128.122 8.904 128.01C7.728 127.898 6.664 127.637 5.712 127.226C4.76 126.816 3.93867 126.228 3.248 125.462C2.53867 124.678 2.00667 123.624 1.652 122.298C1.54 121.888 1.46533 121.412 1.428 120.87C1.39067 120.31 1.344 119.778 1.288 119.274C1.232 118.77 1.15733 118.35 1.064 118.014C0.951999 117.66 0.774666 117.473 0.532 117.454V113.954C1.428 114.029 2.13733 114.225 2.66 114.542C3.18267 114.841 3.60267 115.28 3.92 115.858C4.21867 116.437 4.44267 117.146 4.592 117.986C4.72267 118.826 4.844 119.816 4.956 120.954C5.04933 121.85 5.264 122.606 5.6 123.222C5.936 123.838 6.36533 124.342 6.888 124.734C7.392 125.126 7.97067 125.425 8.624 125.63C9.25867 125.817 9.93067 125.948 10.64 126.022V125.938C10.1547 125.77 9.66933 125.537 9.184 125.238C8.69867 124.921 8.26 124.529 7.868 124.062C7.476 123.596 7.15867 123.045 6.916 122.41C6.65467 121.776 6.524 121.048 6.524 120.226C6.524 119.312 6.70133 118.453 7.056 117.65C7.41067 116.829 7.91467 116.12 8.568 115.522C9.22133 114.925 10.0053 114.458 10.92 114.122C11.816 113.768 12.824 113.59 13.944 113.59C15.0827 113.59 16.1093 113.768 17.024 114.122C17.9387 114.458 18.7227 114.953 19.376 115.606C20.0107 116.26 20.5053 117.053 20.86 117.986C21.196 118.92 21.364 119.965 21.364 121.122ZM18.396 120.842C18.396 119.834 18.0133 119.041 17.248 118.462C16.4827 117.865 15.372 117.566 13.916 117.566C12.4973 117.566 11.396 117.856 10.612 118.434C9.80933 119.013 9.408 119.834 9.408 120.898C9.408 121.906 9.80933 122.7 10.612 123.278C11.4147 123.857 12.5253 124.146 13.944 124.146C15.4 124.146 16.5107 123.857 17.276 123.278C18.0227 122.681 18.396 121.869 18.396 120.842ZM26.068 108.847C26.068 109.257 26.0493 109.668 26.012 110.079C25.9933 110.471 25.9653 110.872 25.928 111.283H22.652C22.6893 110.965 22.7173 110.639 22.736 110.303C22.7733 109.948 22.792 109.603 22.792 109.267C22.792 108.669 22.624 108.212 22.288 107.895C21.952 107.577 21.5227 107.419 21 107.419C20.6827 107.419 20.384 107.475 20.104 107.587L6.524 112.655V108.427L16.436 105.151V105.095L6.524 101.931V97.8146L22.792 103.863C23.968 104.292 24.808 104.889 25.312 105.655C25.816 106.42 26.068 107.484 26.068 108.847ZM6.524 96.4831V92.5071H11.788V86.8791H6.524V82.9031H21V86.8791H14.924V92.5071H21V96.4831H6.524ZM6.524 72.0925V68.2845H16.324L6.524 62.8245L6.524 58.3165H21V62.1245H11.2L21 67.5845V72.0925H6.524ZM18.004 56.6194V54.8834C17.5933 54.6781 17.08 54.4728 16.464 54.2674C15.848 54.0434 15.1573 53.8474 14.392 53.6794C13.6267 53.4928 12.796 53.3434 11.9 53.2314C11.004 53.1194 10.0613 53.0634 9.072 53.0634H6.524V41.4994H18.004V39.6234H24.976V43.3474H21V52.8954H24.976V56.6194H18.004ZM18.004 45.4754H9.492V49.3674H9.856C10.752 49.3674 11.6107 49.4234 12.432 49.5354C13.2533 49.6288 14.0187 49.7594 14.728 49.9274C15.4187 50.0954 16.044 50.2728 16.604 50.4594C17.164 50.6461 17.6307 50.8234 18.004 50.9914V45.4754ZM21.364 31.1388C21.364 32.2774 21.1867 33.3041 20.832 34.2188C20.4587 35.1334 19.936 35.9081 19.264 36.5428C18.592 37.1774 17.7893 37.6721 16.856 38.0268C15.9227 38.3628 14.896 38.5308 13.776 38.5308C12.6933 38.5308 11.6853 38.3534 10.752 37.9988C9.81867 37.6441 9.016 37.1401 8.344 36.4868C7.65333 35.8334 7.112 35.0588 6.72 34.1628C6.328 33.2481 6.132 32.2401 6.132 31.1388C6.132 29.9814 6.34667 28.9641 6.776 28.0868C7.20533 27.1908 7.784 26.4534 8.512 25.8748C9.22133 25.2774 10.052 24.8294 11.004 24.5308C11.956 24.2321 12.9453 24.0828 13.972 24.0828C14.1027 24.0828 14.2333 24.0828 14.364 24.0828C14.476 24.0828 14.5973 24.0921 14.728 24.1108V34.5548C16.016 34.4988 16.9493 34.1721 17.528 33.5748C18.1067 32.9774 18.396 32.1188 18.396 30.9988C18.396 30.1961 18.2 29.5054 17.808 28.9268C17.3973 28.3481 16.968 27.9934 16.52 27.8628V24.3628C18.256 24.9228 19.4973 25.7814 20.244 26.9388C20.9907 28.0961 21.364 29.4961 21.364 31.1388ZM12.208 28.0868C11.2 28.2734 10.4347 28.6094 9.912 29.0948C9.38933 29.5614 9.128 30.2801 9.128 31.2508C9.128 31.9041 9.24 32.4361 9.464 32.8468C9.66933 33.2574 9.93067 33.5934 10.248 33.8548C10.5653 34.0974 10.9013 34.2748 11.256 34.3868C11.6107 34.4801 11.928 34.5361 12.208 34.5548V28.0868ZM6.524 21.7526V17.9446H16.324L6.524 12.4846V7.97665H21V11.7846H11.2L21 17.2446L21 21.7526H6.524ZM4.788 14.8926C4.788 15.546 4.71333 16.162 4.564 16.7406C4.41467 17.3006 4.18133 17.7953 3.864 18.2246C3.528 18.654 3.108 18.9993 2.604 19.2606C2.1 19.5033 1.484 19.6246 0.755999 19.6246V16.6566C1.39067 16.6193 1.85733 16.47 2.156 16.2086C2.45467 15.9473 2.604 15.5086 2.604 14.8926C2.604 14.2953 2.464 13.8566 2.184 13.5766C1.88533 13.2966 1.40933 13.1473 0.755999 13.1286L0.755999 10.1606C1.484 10.1606 2.1 10.2913 2.604 10.5526C3.108 10.7953 3.528 11.1313 3.864 11.5606C4.18133 11.99 4.41467 12.494 4.564 13.0726C4.71333 13.6513 4.788 14.258 4.788 14.8926ZM16.688 4.79559V0.399586H21V4.79559H16.688Z" fill="white"/>
</svg>
