<svg width="213" height="21" viewBox="0 0 213 21" fill="none" xmlns="http://www.w3.org/2000/svg">
<path d="M6.7418 20.564C6.25647 20.564 5.8178 20.4986 5.4258 20.368C5.05247 20.2373 4.77247 20.116 4.5858 20.004V16.448C4.79113 16.56 5.0338 16.6626 5.3138 16.756C5.61247 16.8306 5.97647 16.868 6.4058 16.868C7.73113 16.868 8.5338 16.3173 8.8138 15.216L0.805801 0.20795H5.7338L11.1658 10.624L15.2258 0.20795H19.8178L13.5738 14.88C13.1258 15.9066 12.6685 16.784 12.2018 17.512C11.7538 18.2213 11.2498 18.8093 10.6898 19.276C10.1485 19.724 9.55113 20.0506 8.8978 20.256C8.26313 20.4613 7.54447 20.564 6.7418 20.564ZM20.5867 5.72395H26.3547L29.3507 16.252H29.4627L32.4587 5.72395H38.2267V20.2H34.4747V9.19595H34.3907L31.2827 20.2H27.5307L24.4227 9.19595H24.3387V20.2H20.5867V5.72395ZM47.5396 10.848H61.5396V14.264H47.5396V10.848ZM74.3725 8.71995H69.6125V5.72395H83.1085V8.71995H78.3485V20.2H74.3725V8.71995ZM85.0112 5.72395H93.3272C93.9619 5.72395 94.5592 5.79862 95.1192 5.94795C95.6792 6.07862 96.1645 6.29328 96.5752 6.59195C97.0045 6.87195 97.3405 7.24528 97.5832 7.71195C97.8259 8.17862 97.9472 8.72928 97.9472 9.36395C97.9472 10.0733 97.7699 10.6893 97.4152 11.212C97.0605 11.716 96.5845 12.0986 95.9872 12.36C96.7339 12.5653 97.3592 12.9573 97.8632 13.536C98.3672 14.096 98.6192 14.88 98.6192 15.888C98.6192 16.5973 98.4885 17.2226 98.2272 17.764C97.9845 18.2866 97.6392 18.7346 97.1912 19.108C96.7432 19.4626 96.2205 19.7333 95.6232 19.92C95.0259 20.1066 94.3912 20.2 93.7192 20.2H85.0112V5.72395ZM91.8712 17.624C92.2072 17.624 92.5339 17.6053 92.8512 17.568C93.1685 17.512 93.4485 17.4186 93.6912 17.288C93.9339 17.1573 94.1299 16.9706 94.2792 16.728C94.4285 16.4666 94.5032 16.1306 94.5032 15.72C94.5032 15.3093 94.4192 14.9733 94.2512 14.712C94.1019 14.4506 93.8965 14.2546 93.6352 14.124C93.3739 13.9933 93.0752 13.9093 92.7392 13.872C92.4032 13.816 92.0579 13.788 91.7032 13.788H88.9312V17.624H91.8712ZM91.5632 11.548C91.8619 11.548 92.1512 11.5293 92.4312 11.492C92.7112 11.4546 92.9632 11.38 93.1872 11.268C93.4112 11.1373 93.5885 10.9693 93.7192 10.764C93.8499 10.54 93.9152 10.2413 93.9152 9.86795C93.9152 9.51328 93.8499 9.23328 93.7192 9.02795C93.5885 8.80395 93.4112 8.63595 93.1872 8.52395C92.9819 8.41195 92.7299 8.33728 92.4312 8.29995C92.1512 8.26262 91.8619 8.24395 91.5632 8.24395H88.9312V11.548H91.5632ZM108.197 20.564C107.058 20.564 106.031 20.3866 105.117 20.032C104.202 19.6773 103.418 19.1733 102.765 18.52C102.111 17.848 101.607 17.0453 101.253 16.112C100.898 15.1786 100.721 14.1333 100.721 12.976C100.721 11.8186 100.898 10.7733 101.253 9.83995C101.607 8.88795 102.111 8.08528 102.765 7.43195C103.418 6.75995 104.202 6.24662 105.117 5.89195C106.031 5.51862 107.058 5.33195 108.197 5.33195C109.335 5.33195 110.362 5.51862 111.277 5.89195C112.21 6.24662 113.003 6.75995 113.657 7.43195C114.31 8.08528 114.814 8.88795 115.169 9.83995C115.523 10.7733 115.701 11.8186 115.701 12.976C115.701 14.1333 115.523 15.1786 115.169 16.112C114.814 17.0453 114.31 17.848 113.657 18.52C113.003 19.1733 112.21 19.6773 111.277 20.032C110.362 20.3866 109.335 20.564 108.197 20.564ZM108.197 17.596C108.869 17.596 109.429 17.4653 109.877 17.204C110.343 16.9426 110.707 16.5973 110.969 16.168C111.249 15.72 111.445 15.2253 111.557 14.684C111.669 14.124 111.725 13.5546 111.725 12.976C111.725 12.3973 111.669 11.828 111.557 11.268C111.445 10.708 111.249 10.2133 110.969 9.78395C110.707 9.35462 110.343 9.00928 109.877 8.74795C109.429 8.46795 108.869 8.32795 108.197 8.32795C107.525 8.32795 106.965 8.46795 106.517 8.74795C106.069 9.00928 105.705 9.35462 105.425 9.78395C105.163 10.2133 104.977 10.708 104.865 11.268C104.753 11.828 104.697 12.3973 104.697 12.976C104.697 13.5546 104.753 14.124 104.865 14.684C104.977 15.2253 105.163 15.72 105.425 16.168C105.705 16.5973 106.069 16.9426 106.517 17.204C106.965 17.4653 107.525 17.596 108.197 17.596ZM121.366 14.768C120.339 14.6 119.499 14.1053 118.846 13.284C118.211 12.4626 117.894 11.4546 117.894 10.26C117.894 9.62528 118.006 9.03728 118.23 8.49595C118.473 7.93595 118.809 7.45062 119.238 7.03995C119.667 6.62928 120.171 6.31195 120.75 6.08795C121.329 5.84528 121.973 5.72395 122.682 5.72395H131.446V20.2H127.47V15.104H125.594L121.646 20.2H116.774L121.366 14.768ZM127.47 8.60795H124.306C123.391 8.60795 122.766 8.77595 122.43 9.11195C122.094 9.42928 121.926 9.85862 121.926 10.4C121.926 10.96 122.085 11.408 122.402 11.744C122.738 12.08 123.373 12.248 124.306 12.248H127.47V8.60795ZM149.126 20.564C148.025 20.564 147.026 20.3866 146.13 20.032C145.234 19.6586 144.469 19.1453 143.834 18.492C143.2 17.8386 142.705 17.064 142.35 16.168C141.996 15.2533 141.818 14.2546 141.818 13.172C141.818 12.052 141.977 11.016 142.294 10.064C142.63 9.09328 143.116 8.26262 143.75 7.57195C144.385 6.86262 145.16 6.31195 146.074 5.91995C146.989 5.52795 148.034 5.33195 149.21 5.33195C150.069 5.33195 150.89 5.44395 151.674 5.66795C152.477 5.89195 153.186 6.23728 153.802 6.70395C154.437 7.15195 154.95 7.72128 155.342 8.41195C155.734 9.10262 155.958 9.90528 156.014 10.82H152.122C151.861 9.15862 150.881 8.32795 149.182 8.32795C148.548 8.32795 148.016 8.47728 147.586 8.77595C147.157 9.05595 146.802 9.42928 146.522 9.89595C146.261 10.344 146.074 10.848 145.962 11.408C145.85 11.968 145.794 12.5093 145.794 13.032C145.794 13.5546 145.85 14.0866 145.962 14.628C146.074 15.1693 146.252 15.664 146.494 16.112C146.756 16.5413 147.101 16.896 147.53 17.176C147.96 17.456 148.482 17.596 149.098 17.596C150.05 17.596 150.778 17.3346 151.282 16.812C151.805 16.2706 152.132 15.552 152.262 14.656H156.098C155.837 16.5786 155.09 18.044 153.858 19.052C152.626 20.06 151.049 20.564 149.126 20.564ZM158.345 5.72395H162.153V15.524L167.613 5.72395H172.121V20.2H168.313V10.4L162.853 20.2H158.345V5.72395ZM175.75 20.424C175.582 20.424 175.32 20.396 174.966 20.34C174.611 20.284 174.331 20.2186 174.126 20.144V17.148C174.238 17.1853 174.368 17.2133 174.518 17.232C174.667 17.232 174.816 17.232 174.966 17.232C175.302 17.232 175.6 17.1293 175.862 16.924C176.142 16.7 176.366 16.28 176.534 15.664C176.72 15.048 176.86 14.1706 176.954 13.032C177.066 11.8933 177.122 10.4 177.122 8.55195V5.72395H188.882V20.2H184.906V8.71995H180.818C180.743 10.7733 180.622 12.5373 180.454 14.012C180.286 15.4866 180.015 16.7 179.642 17.652C179.287 18.604 178.792 19.304 178.158 19.752C177.542 20.2 176.739 20.424 175.75 20.424ZM196.207 20.564C195.517 20.564 194.873 20.48 194.275 20.312C193.678 20.144 193.155 19.8826 192.707 19.528C192.259 19.1733 191.905 18.7253 191.643 18.184C191.401 17.6426 191.279 16.9986 191.279 16.252C191.279 15.4306 191.419 14.7586 191.699 14.236C191.998 13.6946 192.371 13.2653 192.819 12.948C193.286 12.6306 193.809 12.3973 194.387 12.248C194.985 12.08 195.582 11.9493 196.179 11.856C196.777 11.7626 197.365 11.688 197.943 11.632C198.522 11.576 199.035 11.492 199.483 11.38C199.931 11.268 200.286 11.1093 200.547 10.904C200.809 10.68 200.93 10.3626 200.911 9.95195C200.911 9.54128 200.837 9.20528 200.687 8.94395C200.557 8.68262 200.37 8.48662 200.127 8.35595C199.903 8.20662 199.633 8.11328 199.315 8.07595C199.017 8.01995 198.69 7.99195 198.335 7.99195C197.551 7.99195 196.935 8.15995 196.487 8.49595C196.039 8.83195 195.778 9.39195 195.703 10.176H191.727C191.783 9.26128 192.017 8.49595 192.427 7.87995C192.838 7.24528 193.361 6.74128 193.995 6.36795C194.63 5.99462 195.339 5.73328 196.123 5.58395C196.907 5.41595 197.71 5.33195 198.531 5.33195C199.259 5.33195 199.997 5.38795 200.743 5.49995C201.49 5.59328 202.171 5.78928 202.787 6.08795C203.403 6.38662 203.907 6.80662 204.299 7.34795C204.691 7.88928 204.887 8.58928 204.887 9.44795V16.98C204.887 17.6333 204.925 18.2586 204.999 18.856C205.074 19.4533 205.205 19.9013 205.391 20.2H201.359C201.285 19.976 201.219 19.752 201.163 19.528C201.126 19.2853 201.098 19.0426 201.079 18.8C200.445 19.4533 199.698 19.9106 198.839 20.172C197.981 20.4333 197.103 20.564 196.207 20.564ZM197.691 17.932C198.475 17.932 199.082 17.8013 199.511 17.54C199.941 17.2786 200.258 16.9706 200.463 16.616C200.669 16.2426 200.79 15.8693 200.827 15.496C200.883 15.1226 200.911 14.824 200.911 14.6V13.116C200.743 13.2653 200.538 13.3866 200.295 13.48C200.053 13.5546 199.782 13.62 199.483 13.676C199.185 13.732 198.877 13.7786 198.559 13.816C198.242 13.8533 197.925 13.9 197.607 13.956C197.29 14.012 196.991 14.0866 196.711 14.18C196.431 14.2733 196.179 14.404 195.955 14.572C195.75 14.7213 195.582 14.9173 195.451 15.16C195.321 15.4026 195.255 15.7106 195.255 16.084C195.255 16.4573 195.321 16.7653 195.451 17.008C195.582 17.232 195.759 17.4186 195.983 17.568C196.207 17.6986 196.469 17.792 196.767 17.848C197.066 17.904 197.374 17.932 197.691 17.932ZM208.169 15.888H212.565V20.2H208.169V15.888ZM212.425 5.58395L211.333 14.208H209.345L208.281 5.58395V0.20795H212.425V5.58395Z" fill="white"/>
</svg>
