<svg width="240" height="26" viewBox="0 0 240 26" fill="none" xmlns="http://www.w3.org/2000/svg">
<path d="M0.120477 0.0079987H6.30848L10.9845 13.756H11.0405L15.4645 0.0079987H21.6525V20H17.5365V5.832H17.4805L12.5805 20H9.19248L4.29248 5.972H4.23648V20H0.120477V0.0079987ZM34.1748 14.68C33.8015 14.792 33.2508 14.932 32.5228 15.1C31.7948 15.2493 31.0388 15.324 30.2548 15.324C28.2762 15.324 26.8575 14.8667 25.9988 13.952C25.1402 13.0373 24.7108 11.796 24.7108 10.228V5.524H28.6588V9.416C28.6588 10.48 28.8642 11.2173 29.2748 11.628C29.6855 12.0387 30.3575 12.244 31.2908 12.244C31.8695 12.244 32.4108 12.1973 32.9148 12.104C33.4188 12.0107 33.8388 11.9173 34.1748 11.824V5.524H38.1508V20H34.1748V14.68ZM41.1809 5.524H44.9889V15.324L50.4489 5.524H54.9569V20H51.1489V10.2L45.6889 20H41.1809V5.524ZM57.97 5.524H63.738L66.734 16.052H66.846L69.842 5.524H75.61V20H71.858V8.996H71.774L68.666 20H64.914L61.806 8.996H61.722V20H57.97V5.524ZM85.5019 20.364C84.4005 20.364 83.4019 20.1867 82.5059 19.832C81.6099 19.4587 80.8445 18.9453 80.2099 18.292C79.5752 17.6387 79.0805 16.864 78.7259 15.968C78.3712 15.0533 78.1939 14.0547 78.1939 12.972C78.1939 11.852 78.3525 10.816 78.6699 9.864C79.0059 8.89333 79.4912 8.06267 80.1259 7.372C80.7605 6.66267 81.5352 6.112 82.4499 5.72C83.3645 5.328 84.4099 5.132 85.5859 5.132C86.4445 5.132 87.2659 5.244 88.0499 5.468C88.8526 5.692 89.5619 6.03733 90.1779 6.504C90.8125 6.952 91.3259 7.52133 91.7179 8.212C92.1099 8.90267 92.3339 9.70533 92.3899 10.62H88.4979C88.2366 8.95867 87.2566 8.128 85.5579 8.128C84.9232 8.128 84.3912 8.27733 83.9619 8.576C83.5325 8.856 83.1779 9.22933 82.8979 9.696C82.6365 10.144 82.4499 10.648 82.3379 11.208C82.2259 11.768 82.1699 12.3093 82.1699 12.832C82.1699 13.3547 82.2259 13.8867 82.3379 14.428C82.4499 14.9693 82.6272 15.464 82.8699 15.912C83.1312 16.3413 83.4765 16.696 83.9059 16.976C84.3352 17.256 84.8579 17.396 85.4739 17.396C86.4259 17.396 87.1539 17.1347 87.6579 16.612C88.1805 16.0707 88.5072 15.352 88.6379 14.456H92.4739C92.2126 16.3787 91.4659 17.844 90.2339 18.852C89.0019 19.86 87.4245 20.364 85.5019 20.364ZM97.8 14.568C96.7733 14.4 95.9333 13.9053 95.28 13.084C94.6453 12.2627 94.328 11.2547 94.328 10.06C94.328 9.42533 94.44 8.83733 94.664 8.296C94.9067 7.736 95.2427 7.25067 95.672 6.84C96.1013 6.42933 96.6053 6.112 97.184 5.888C97.7627 5.64533 98.4067 5.524 99.116 5.524H107.88V20H103.904V14.904H102.028L98.08 20H93.208L97.8 14.568ZM103.904 8.408H100.74C99.8253 8.408 99.2 8.576 98.864 8.912C98.528 9.22933 98.36 9.65867 98.36 10.2C98.36 10.76 98.5187 11.208 98.836 11.544C99.172 11.88 99.8067 12.048 100.74 12.048H103.904V8.408ZM118.7 5.524H122.676V11.432L127.996 5.524H132.672L126.624 11.908L133.456 20H128.64L123.516 13.98L122.676 14.904V20H118.7V5.524ZM144.728 25.068C144.317 25.068 143.906 25.0493 143.496 25.012C143.104 24.9933 142.702 24.9653 142.292 24.928V21.652C142.609 21.6893 142.936 21.7173 143.272 21.736C143.626 21.7733 143.972 21.792 144.308 21.792C144.905 21.792 145.362 21.624 145.68 21.288C145.997 20.952 146.156 20.5227 146.156 20C146.156 19.6827 146.1 19.384 145.988 19.104L140.92 5.524H145.148L148.424 15.436H148.48L151.644 5.524H155.76L149.712 21.792C149.282 22.968 148.685 23.808 147.92 24.312C147.154 24.816 146.09 25.068 144.728 25.068ZM163.951 20.364C162.85 20.364 161.851 20.1867 160.955 19.832C160.059 19.4587 159.294 18.9453 158.659 18.292C158.024 17.6387 157.53 16.864 157.175 15.968C156.82 15.0533 156.643 14.0547 156.643 12.972C156.643 11.852 156.802 10.816 157.119 9.864C157.455 8.89333 157.94 8.06267 158.575 7.372C159.21 6.66267 159.984 6.112 160.899 5.72C161.814 5.328 162.859 5.132 164.035 5.132C164.894 5.132 165.715 5.244 166.499 5.468C167.302 5.692 168.011 6.03733 168.627 6.504C169.262 6.952 169.775 7.52133 170.167 8.212C170.559 8.90267 170.783 9.70533 170.839 10.62H166.947C166.686 8.95867 165.706 8.128 164.007 8.128C163.372 8.128 162.84 8.27733 162.411 8.576C161.982 8.856 161.627 9.22933 161.347 9.696C161.086 10.144 160.899 10.648 160.787 11.208C160.675 11.768 160.619 12.3093 160.619 12.832C160.619 13.3547 160.675 13.8867 160.787 14.428C160.899 14.9693 161.076 15.464 161.319 15.912C161.58 16.3413 161.926 16.696 162.355 16.976C162.784 17.256 163.307 17.396 163.923 17.396C164.875 17.396 165.603 17.1347 166.107 16.612C166.63 16.0707 166.956 15.352 167.087 14.456H170.923C170.662 16.3787 169.915 17.844 168.683 18.852C167.451 19.86 165.874 20.364 163.951 20.364ZM173.169 5.524H186.469V20H182.493V8.52H177.145V20H173.169V5.524ZM196.185 20.364C195.047 20.364 194.02 20.1867 193.105 19.832C192.191 19.4587 191.416 18.936 190.781 18.264C190.147 17.592 189.652 16.7893 189.297 15.856C188.961 14.9227 188.793 13.896 188.793 12.776C188.793 11.6933 188.971 10.6853 189.325 9.752C189.68 8.81867 190.184 8.016 190.837 7.344C191.491 6.65333 192.265 6.112 193.161 5.72C194.076 5.328 195.084 5.132 196.185 5.132C197.343 5.132 198.36 5.34667 199.237 5.776C200.133 6.20533 200.871 6.784 201.449 7.512C202.047 8.22133 202.495 9.052 202.793 10.004C203.092 10.956 203.241 11.9453 203.241 12.972C203.241 13.1027 203.241 13.2333 203.241 13.364C203.241 13.476 203.232 13.5973 203.213 13.728H192.769C192.825 15.016 193.152 15.9493 193.749 16.528C194.347 17.1067 195.205 17.396 196.325 17.396C197.128 17.396 197.819 17.2 198.397 16.808C198.976 16.3973 199.331 15.968 199.461 15.52H202.961C202.401 17.256 201.543 18.4973 200.385 19.244C199.228 19.9907 197.828 20.364 196.185 20.364ZM199.237 11.208C199.051 10.2 198.715 9.43467 198.229 8.912C197.763 8.38933 197.044 8.128 196.073 8.128C195.42 8.128 194.888 8.24 194.477 8.464C194.067 8.66933 193.731 8.93067 193.469 9.248C193.227 9.56533 193.049 9.90133 192.937 10.256C192.844 10.6107 192.788 10.928 192.769 11.208H199.237ZM209.268 12.384L204.508 5.524H209.044L211.592 9.304L214.112 5.524H218.508L213.748 12.3L219.096 20H214.56L211.536 15.436L208.512 20H204.06L209.268 12.384ZM222.767 25.068C222.356 25.068 221.945 25.0493 221.535 25.012C221.143 24.9933 220.741 24.9653 220.331 24.928V21.652C220.648 21.6893 220.975 21.7173 221.311 21.736C221.665 21.7733 222.011 21.792 222.347 21.792C222.944 21.792 223.401 21.624 223.719 21.288C224.036 20.952 224.195 20.5227 224.195 20C224.195 19.6827 224.139 19.384 224.027 19.104L218.959 5.524H223.187L226.463 15.436H226.519L229.683 5.524H233.799L227.751 21.792C227.321 22.968 226.724 23.808 225.959 24.312C225.193 24.816 224.129 25.068 222.767 25.068ZM235.326 15.688H239.722V20H235.326V15.688ZM239.582 5.384L238.49 14.008H236.502L235.438 5.384V0.0079987H239.582V5.384Z" fill="white"/>
</svg>
