<svg width="26" height="269" viewBox="0 0 26 269" fill="none" xmlns="http://www.w3.org/2000/svg">
<path d="M25.3919 0.138055V6.32606L11.6439 11.0021V11.0581L25.3919 15.4821V21.6701H5.3999V17.5541H19.5679V17.4981L5.3999 12.5981V9.21005L19.4279 4.31005V4.25405L5.3999 4.25405V0.138055L25.3919 0.138055ZM0.331902 27.2764C0.331902 26.8657 0.350569 26.4551 0.387902 26.0444C0.406569 25.6524 0.434569 25.2511 0.471902 24.8404H3.7479C3.71057 25.1577 3.68257 25.4844 3.6639 25.8204C3.62657 26.1751 3.6079 26.5204 3.6079 26.8564C3.6079 27.4537 3.7759 27.9111 4.1119 28.2284C4.4479 28.5457 4.87724 28.7044 5.3999 28.7044C5.71724 28.7044 6.0159 28.6484 6.2959 28.5364L19.8759 23.4684V27.6964L9.9639 30.9724V31.0284L19.8759 34.1924V38.3084L3.6079 32.2604C2.4319 31.8311 1.5919 31.2337 1.0879 30.4684C0.583902 29.7031 0.331902 28.6391 0.331902 27.2764ZM8.3959 38.3239V40.0599C8.80657 40.2653 9.3199 40.4706 9.9359 40.6759C10.5519 40.8999 11.2426 41.0959 12.0079 41.2639C12.7732 41.4506 13.6039 41.5999 14.4999 41.7119C15.3959 41.8239 16.3386 41.8799 17.3279 41.8799H19.8759V53.4439H8.3959V55.3199H1.4239V51.5959H5.3999V42.0479H1.4239V38.3239H8.3959ZM8.3959 49.4679H16.9079V45.5759H16.5439C15.6479 45.5759 14.7892 45.5199 13.9679 45.4079C13.1466 45.3146 12.3812 45.1839 11.6719 45.0159C10.9812 44.8479 10.3559 44.6706 9.7959 44.4839C9.2359 44.2973 8.76924 44.1199 8.3959 43.9519V49.4679ZM19.8759 57.1126V60.8926H18.0279V60.9486C18.8119 61.4339 19.3812 62.0499 19.7359 62.7966C20.0906 63.5433 20.2679 64.3646 20.2679 65.2606C20.2679 66.3993 20.0532 67.3793 19.6239 68.2006C19.1946 69.0219 18.6252 69.7033 17.9159 70.2446C17.2066 70.7859 16.3759 71.1873 15.4239 71.4486C14.4906 71.7099 13.5106 71.8406 12.4839 71.8406C11.5132 71.8406 10.5799 71.7099 9.6839 71.4486C8.7879 71.1873 7.99457 70.7859 7.3039 70.2446C6.61324 69.7219 6.06257 69.0593 5.6519 68.2566C5.24124 67.4726 5.0359 66.5486 5.0359 65.4846C5.0359 64.5886 5.21324 63.7579 5.5679 62.9926C5.94124 62.2459 6.48257 61.6299 7.1919 61.1446V61.0886H0.331902V57.1126H19.8759ZM8.0039 64.4206C8.0039 65.0739 8.13457 65.6153 8.3959 66.0446C8.65724 66.4926 8.99324 66.8473 9.4039 67.1086C9.83324 67.3886 10.3186 67.5846 10.8599 67.6966C11.4199 67.8086 11.9986 67.8646 12.5959 67.8646C13.1746 67.8646 13.7439 67.7993 14.3039 67.6686C14.8639 67.5566 15.3586 67.3606 15.7879 67.0806C16.2359 66.8006 16.5906 66.4366 16.8519 65.9886C17.1319 65.5593 17.2719 65.0273 17.2719 64.3926C17.2719 63.7393 17.1319 63.1886 16.8519 62.7406C16.5906 62.3113 16.2452 61.9566 15.8159 61.6766C15.3866 61.4153 14.8826 61.2286 14.3039 61.1166C13.7439 61.0046 13.1746 60.9486 12.5959 60.9486C11.9986 60.9486 11.4199 61.0046 10.8599 61.1166C10.3186 61.2473 9.83324 61.4433 9.4039 61.7046C8.99324 61.9846 8.65724 62.3393 8.3959 62.7686C8.13457 63.2166 8.0039 63.7673 8.0039 64.4206ZM5.0359 81.2578C5.0359 80.1191 5.21324 79.0924 5.5679 78.1778C5.92257 77.2631 6.42657 76.4791 7.0799 75.8258C7.7519 75.1724 8.55457 74.6684 9.4879 74.3138C10.4212 73.9591 11.4666 73.7818 12.6239 73.7818C13.7812 73.7818 14.8266 73.9591 15.7599 74.3138C16.7119 74.6684 17.5146 75.1724 18.1679 75.8258C18.8399 76.4791 19.3532 77.2631 19.7079 78.1778C20.0812 79.0924 20.2679 80.1191 20.2679 81.2578C20.2679 82.3964 20.0812 83.4231 19.7079 84.3378C19.3532 85.2711 18.8399 86.0644 18.1679 86.7178C17.5146 87.3711 16.7119 87.8751 15.7599 88.2298C14.8266 88.5844 13.7812 88.7618 12.6239 88.7618C11.4666 88.7618 10.4212 88.5844 9.4879 88.2298C8.55457 87.8751 7.7519 87.3711 7.0799 86.7178C6.42657 86.0644 5.92257 85.2711 5.5679 84.3378C5.21324 83.4231 5.0359 82.3964 5.0359 81.2578ZM8.0039 81.2578C8.0039 81.9298 8.13457 82.4898 8.3959 82.9378C8.65724 83.4044 9.00257 83.7684 9.4319 84.0298C9.8799 84.3098 10.3746 84.5058 10.9159 84.6178C11.4759 84.7298 12.0452 84.7858 12.6239 84.7858C13.2026 84.7858 13.7719 84.7298 14.3319 84.6178C14.8919 84.5058 15.3866 84.3098 15.8159 84.0298C16.2452 83.7684 16.5906 83.4044 16.8519 82.9378C17.1319 82.4898 17.2719 81.9298 17.2719 81.2578C17.2719 80.5858 17.1319 80.0258 16.8519 79.5778C16.5906 79.1298 16.2452 78.7658 15.8159 78.4858C15.3866 78.2244 14.8919 78.0378 14.3319 77.9258C13.7719 77.8138 13.2026 77.7578 12.6239 77.7578C12.0452 77.7578 11.4759 77.8138 10.9159 77.9258C10.3746 78.0378 9.8799 78.2244 9.4319 78.4858C9.00257 78.7658 8.65724 79.1298 8.3959 79.5778C8.13457 80.0258 8.0039 80.5858 8.0039 81.2578ZM5.0359 98.207C5.0359 97.1056 5.21324 96.107 5.5679 95.211C5.94124 94.315 6.45457 93.5496 7.1079 92.915C7.76124 92.2803 8.5359 91.7856 9.4319 91.431C10.3466 91.0763 11.3452 90.899 12.4279 90.899C13.5479 90.899 14.5839 91.0576 15.5359 91.375C16.5066 91.711 17.3372 92.1963 18.0279 92.831C18.7372 93.4656 19.2879 94.2403 19.6799 95.155C20.0719 96.0696 20.2679 97.115 20.2679 98.291C20.2679 99.1496 20.1559 99.971 19.9319 100.755C19.7079 101.558 19.3626 102.267 18.8959 102.883C18.4479 103.518 17.8786 104.031 17.1879 104.423C16.4972 104.815 15.6946 105.039 14.7799 105.095V101.203C16.4412 100.942 17.2719 99.9616 17.2719 98.263C17.2719 97.6283 17.1226 97.0963 16.8239 96.667C16.5439 96.2376 16.1706 95.883 15.7039 95.603C15.2559 95.3416 14.7519 95.155 14.1919 95.043C13.6319 94.931 13.0906 94.875 12.5679 94.875C12.0452 94.875 11.5132 94.931 10.9719 95.043C10.4306 95.155 9.9359 95.3323 9.4879 95.575C9.05857 95.8363 8.7039 96.1816 8.4239 96.611C8.1439 97.0403 8.0039 97.563 8.0039 98.179C8.0039 99.131 8.26524 99.859 8.7879 100.363C9.32924 100.886 10.0479 101.212 10.9439 101.343V105.179C9.02124 104.918 7.5559 104.171 6.5479 102.939C5.5399 101.707 5.0359 100.13 5.0359 98.207ZM16.8799 110.953V106.193H19.8759V119.689H16.8799V114.929H5.3999V110.953H16.8799ZM19.8759 121.48V125.456H14.8919V129.292C14.8919 130.02 14.7892 130.701 14.5839 131.336C14.3972 131.989 14.0986 132.549 13.6879 133.016C13.2959 133.501 12.8012 133.884 12.2039 134.164C11.6252 134.444 10.9439 134.584 10.1599 134.584C9.35724 134.584 8.65724 134.444 8.0599 134.164C7.46257 133.902 6.9679 133.52 6.5759 133.016C6.1839 132.53 5.88524 131.952 5.6799 131.28C5.49324 130.626 5.3999 129.908 5.3999 129.124V121.48H19.8759ZM8.1439 128.172C8.1439 128.9 8.30257 129.478 8.6199 129.908C8.93724 130.356 9.45057 130.58 10.1599 130.58C10.8692 130.58 11.3826 130.346 11.6999 129.88C12.0359 129.413 12.2039 128.834 12.2039 128.144V125.456H8.1439V128.172ZM19.8759 144.613V148.589H14.6119V154.217H19.8759L19.8759 158.193H5.3999V154.217H11.4759V148.589H5.3999V144.613H19.8759ZM5.0359 165.522C5.0359 164.832 5.1199 164.188 5.2879 163.59C5.4559 162.993 5.71724 162.47 6.0719 162.022C6.42657 161.574 6.87457 161.22 7.4159 160.958C7.95724 160.716 8.60124 160.594 9.3479 160.594C10.1692 160.594 10.8412 160.734 11.3639 161.014C11.9052 161.313 12.3346 161.686 12.6519 162.134C12.9692 162.601 13.2026 163.124 13.3519 163.702C13.5199 164.3 13.6506 164.897 13.7439 165.494C13.8372 166.092 13.9119 166.68 13.9679 167.258C14.0239 167.837 14.1079 168.35 14.2199 168.798C14.3319 169.246 14.4906 169.601 14.6959 169.862C14.9199 170.124 15.2372 170.245 15.6479 170.226C16.0586 170.226 16.3946 170.152 16.6559 170.002C16.9172 169.872 17.1132 169.685 17.2439 169.442C17.3932 169.218 17.4866 168.948 17.5239 168.63C17.5799 168.332 17.6079 168.005 17.6079 167.65C17.6079 166.866 17.4399 166.25 17.1039 165.802C16.7679 165.354 16.2079 165.093 15.4239 165.018V161.042C16.3386 161.098 17.1039 161.332 17.7199 161.742C18.3546 162.153 18.8586 162.676 19.2319 163.31C19.6052 163.945 19.8666 164.654 20.0159 165.438C20.1839 166.222 20.2679 167.025 20.2679 167.846C20.2679 168.574 20.2119 169.312 20.0999 170.058C20.0066 170.805 19.8106 171.486 19.5119 172.102C19.2132 172.718 18.7932 173.222 18.2519 173.614C17.7106 174.006 17.0106 174.202 16.1519 174.202H8.6199C7.96657 174.202 7.34124 174.24 6.7439 174.314C6.14657 174.389 5.69857 174.52 5.3999 174.706V170.674C5.6239 170.6 5.8479 170.534 6.0719 170.478C6.31457 170.441 6.55724 170.413 6.7999 170.394C6.14657 169.76 5.68924 169.013 5.4279 168.154C5.16657 167.296 5.0359 166.418 5.0359 165.522ZM7.6679 167.006C7.6679 167.79 7.79857 168.397 8.0599 168.826C8.32124 169.256 8.62924 169.573 8.9839 169.778C9.35724 169.984 9.73057 170.105 10.1039 170.142C10.4772 170.198 10.7759 170.226 10.9999 170.226H12.4839C12.3346 170.058 12.2132 169.853 12.1199 169.61C12.0452 169.368 11.9799 169.097 11.9239 168.798C11.8679 168.5 11.8212 168.192 11.7839 167.874C11.7466 167.557 11.6999 167.24 11.6439 166.922C11.5879 166.605 11.5132 166.306 11.4199 166.026C11.3266 165.746 11.1959 165.494 11.0279 165.27C10.8786 165.065 10.6826 164.897 10.4399 164.766C10.1972 164.636 9.88924 164.57 9.5159 164.57C9.14257 164.57 8.83457 164.636 8.5919 164.766C8.3679 164.897 8.18124 165.074 8.0319 165.298C7.90124 165.522 7.8079 165.784 7.7519 166.082C7.6959 166.381 7.6679 166.689 7.6679 167.006ZM5.0359 191.941C5.0359 190.84 5.21324 189.841 5.5679 188.945C5.94124 188.049 6.45457 187.284 7.1079 186.649C7.76124 186.015 8.5359 185.52 9.4319 185.165C10.3466 184.811 11.3452 184.633 12.4279 184.633C13.5479 184.633 14.5839 184.792 15.5359 185.109C16.5066 185.445 17.3372 185.931 18.0279 186.565C18.7372 187.2 19.2879 187.975 19.6799 188.889C20.0719 189.804 20.2679 190.849 20.2679 192.025C20.2679 192.884 20.1559 193.705 19.9319 194.489C19.7079 195.292 19.3626 196.001 18.8959 196.617C18.4479 197.252 17.8786 197.765 17.1879 198.157C16.4972 198.549 15.6946 198.773 14.7799 198.829V194.937C16.4412 194.676 17.2719 193.696 17.2719 191.997C17.2719 191.363 17.1226 190.831 16.8239 190.401C16.5439 189.972 16.1706 189.617 15.7039 189.337C15.2559 189.076 14.7519 188.889 14.1919 188.777C13.6319 188.665 13.0906 188.609 12.5679 188.609C12.0452 188.609 11.5132 188.665 10.9719 188.777C10.4306 188.889 9.9359 189.067 9.4879 189.309C9.05857 189.571 8.7039 189.916 8.4239 190.345C8.1439 190.775 8.0039 191.297 8.0039 191.913C8.0039 192.865 8.26524 193.593 8.7879 194.097C9.32924 194.62 10.0479 194.947 10.9439 195.077V198.913C9.02124 198.652 7.5559 197.905 6.5479 196.673C5.5399 195.441 5.0359 193.864 5.0359 191.941ZM19.8759 201.159V205.135H13.9679L19.8759 210.455V215.131L13.4919 209.083L5.3999 215.915V211.099L11.4199 205.975L10.4959 205.135H5.3999L5.3999 201.159H19.8759ZM5.0359 221.55C5.0359 220.859 5.1199 220.215 5.2879 219.618C5.4559 219.02 5.71724 218.498 6.0719 218.05C6.42657 217.602 6.87457 217.247 7.4159 216.986C7.95724 216.743 8.60124 216.622 9.3479 216.622C10.1692 216.622 10.8412 216.762 11.3639 217.042C11.9052 217.34 12.3346 217.714 12.6519 218.162C12.9692 218.628 13.2026 219.151 13.3519 219.73C13.5199 220.327 13.6506 220.924 13.7439 221.522C13.8372 222.119 13.9119 222.707 13.9679 223.286C14.0239 223.864 14.1079 224.378 14.2199 224.826C14.3319 225.274 14.4906 225.628 14.6959 225.89C14.9199 226.151 15.2372 226.272 15.6479 226.254C16.0586 226.254 16.3946 226.179 16.6559 226.03C16.9172 225.899 17.1132 225.712 17.2439 225.47C17.3932 225.246 17.4866 224.975 17.5239 224.658C17.5799 224.359 17.6079 224.032 17.6079 223.678C17.6079 222.894 17.4399 222.278 17.1039 221.83C16.7679 221.382 16.2079 221.12 15.4239 221.046V217.07C16.3386 217.126 17.1039 217.359 17.7199 217.77C18.3546 218.18 18.8586 218.703 19.2319 219.338C19.6052 219.972 19.8666 220.682 20.0159 221.466C20.1839 222.25 20.2679 223.052 20.2679 223.874C20.2679 224.602 20.2119 225.339 20.0999 226.086C20.0066 226.832 19.8106 227.514 19.5119 228.13C19.2132 228.746 18.7932 229.25 18.2519 229.642C17.7106 230.034 17.0106 230.23 16.1519 230.23H8.6199C7.96657 230.23 7.34124 230.267 6.7439 230.342C6.14657 230.416 5.69857 230.547 5.3999 230.734V226.702C5.6239 226.627 5.8479 226.562 6.0719 226.506C6.31457 226.468 6.55724 226.44 6.7999 226.422C6.14657 225.787 5.68924 225.04 5.4279 224.182C5.16657 223.323 5.0359 222.446 5.0359 221.55ZM7.6679 223.034C7.6679 223.818 7.79857 224.424 8.0599 224.854C8.32124 225.283 8.62924 225.6 8.9839 225.806C9.35724 226.011 9.73057 226.132 10.1039 226.17C10.4772 226.226 10.7759 226.254 10.9999 226.254H12.4839C12.3346 226.086 12.2132 225.88 12.1199 225.638C12.0452 225.395 11.9799 225.124 11.9239 224.826C11.8679 224.527 11.8212 224.219 11.7839 223.902C11.7466 223.584 11.6999 223.267 11.6439 222.95C11.5879 222.632 11.5132 222.334 11.4199 222.054C11.3266 221.774 11.1959 221.522 11.0279 221.298C10.8786 221.092 10.6826 220.924 10.4399 220.794C10.1972 220.663 9.88924 220.598 9.5159 220.598C9.14257 220.598 8.83457 220.663 8.5919 220.794C8.3679 220.924 8.18124 221.102 8.0319 221.326C7.90124 221.55 7.8079 221.811 7.7519 222.11C7.6959 222.408 7.6679 222.716 7.6679 223.034ZM19.8759 233.316V237.292H13.9679L19.8759 242.612V247.288L13.4919 241.24L5.3999 248.072V243.256L11.4199 238.132L10.4959 237.292H5.3999V233.316H19.8759ZM0.331902 251.55C0.331902 251.139 0.350569 250.729 0.387902 250.318C0.406569 249.926 0.434569 249.525 0.471902 249.114H3.7479C3.71057 249.431 3.68257 249.758 3.6639 250.094C3.62657 250.449 3.6079 250.794 3.6079 251.13C3.6079 251.727 3.7759 252.185 4.1119 252.502C4.4479 252.819 4.87724 252.978 5.3999 252.978C5.71724 252.978 6.0159 252.922 6.2959 252.81L19.8759 247.742V251.97L9.9639 255.246V255.302L19.8759 258.466V262.582L3.6079 256.534C2.4319 256.105 1.5919 255.507 1.0879 254.742C0.583902 253.977 0.331902 252.913 0.331902 251.55ZM9.7119 264.081V268.477H5.3999V264.081H9.7119Z" fill="white"/>
</svg>
