<svg width="212" height="26" viewBox="0 0 212 26" fill="none" xmlns="http://www.w3.org/2000/svg">
<path d="M0.0386896 0.0079987H9.44669C10.3987 0.0079987 11.2667 0.0919987 12.0507 0.259999C12.8347 0.427999 13.5067 0.707999 14.0667 1.1C14.6267 1.47333 15.056 1.97733 15.3547 2.612C15.672 3.24667 15.8307 4.03067 15.8307 4.964C15.8307 5.972 15.5974 6.812 15.1307 7.484C14.6827 8.156 14.0107 8.70667 13.1147 9.136C14.3467 9.49067 15.2614 10.116 15.8587 11.012C16.4747 11.8893 16.7827 12.9533 16.7827 14.204C16.7827 15.212 16.5867 16.0893 16.1947 16.836C15.8027 17.564 15.2707 18.1613 14.5987 18.628C13.9454 19.0947 13.1894 19.44 12.3307 19.664C11.4907 19.888 10.6227 20 9.72669 20H0.0386896V0.0079987ZM9.13869 16.584C9.56802 16.584 9.97869 16.5467 10.3707 16.472C10.7627 16.3787 11.108 16.2387 11.4067 16.052C11.7054 15.8467 11.9387 15.576 12.1067 15.24C12.2934 14.904 12.3867 14.4747 12.3867 13.952C12.3867 12.9253 12.0974 12.1973 11.5187 11.768C10.94 11.32 10.1747 11.096 9.22269 11.096H4.43469V16.584H9.13869ZM8.88669 8.1C9.67069 8.1 10.3147 7.91333 10.8187 7.54C11.3227 7.16667 11.5747 6.56 11.5747 5.72C11.5747 5.25333 11.4907 4.87067 11.3227 4.572C11.1547 4.27333 10.9307 4.04 10.6507 3.872C10.3707 3.704 10.044 3.592 9.67069 3.536C9.31602 3.46133 8.94269 3.424 8.55069 3.424H4.43469V8.1H8.88669ZM26.0255 20.364C24.8869 20.364 23.8602 20.1867 22.9455 19.832C22.0309 19.4587 21.2562 18.936 20.6215 18.264C19.9869 17.592 19.4922 16.7893 19.1375 15.856C18.8015 14.9227 18.6335 13.896 18.6335 12.776C18.6335 11.6933 18.8109 10.6853 19.1655 9.752C19.5202 8.81867 20.0242 8.016 20.6775 7.344C21.3309 6.65333 22.1055 6.112 23.0015 5.72C23.9162 5.328 24.9242 5.132 26.0255 5.132C27.1829 5.132 28.2002 5.34667 29.0775 5.776C29.9735 6.20533 30.7109 6.784 31.2895 7.512C31.8869 8.22133 32.3349 9.052 32.6335 10.004C32.9322 10.956 33.0815 11.9453 33.0815 12.972C33.0815 13.1027 33.0815 13.2333 33.0815 13.364C33.0815 13.476 33.0722 13.5973 33.0535 13.728H22.6095C22.6655 15.016 22.9922 15.9493 23.5895 16.528C24.1869 17.1067 25.0455 17.396 26.1655 17.396C26.9682 17.396 27.6589 17.2 28.2375 16.808C28.8162 16.3973 29.1709 15.968 29.3015 15.52H32.8015C32.2415 17.256 31.3829 18.4973 30.2255 19.244C29.0682 19.9907 27.6682 20.364 26.0255 20.364ZM29.0775 11.208C28.8909 10.2 28.5549 9.43467 28.0695 8.912C27.6029 8.38933 26.8842 8.128 25.9135 8.128C25.2602 8.128 24.7282 8.24 24.3175 8.464C23.9069 8.66933 23.5709 8.93067 23.3095 9.248C23.0669 9.56533 22.8895 9.90133 22.7775 10.256C22.6842 10.6107 22.6282 10.928 22.6095 11.208H29.0775ZM35.4117 5.524H39.1917V7.372H39.2477C39.733 6.588 40.349 6.01867 41.0957 5.664C41.8423 5.30933 42.6637 5.132 43.5597 5.132C44.6983 5.132 45.6783 5.34667 46.4997 5.776C47.321 6.20533 48.0023 6.77467 48.5437 7.484C49.085 8.19333 49.4863 9.024 49.7477 9.976C50.009 10.9093 50.1397 11.8893 50.1397 12.916C50.1397 13.8867 50.009 14.82 49.7477 15.716C49.4863 16.612 49.085 17.4053 48.5437 18.096C48.021 18.7867 47.3583 19.3373 46.5557 19.748C45.7717 20.1587 44.8477 20.364 43.7837 20.364C42.8877 20.364 42.057 20.1867 41.2917 19.832C40.545 19.4587 39.929 18.9173 39.4437 18.208H39.3877V25.068H35.4117V5.524ZM42.7197 17.396C43.373 17.396 43.9143 17.2653 44.3437 17.004C44.7917 16.7427 45.1463 16.4067 45.4077 15.996C45.6877 15.5667 45.8837 15.0813 45.9957 14.54C46.1077 13.98 46.1637 13.4013 46.1637 12.804C46.1637 12.2253 46.0983 11.656 45.9677 11.096C45.8557 10.536 45.6597 10.0413 45.3797 9.612C45.0997 9.164 44.7357 8.80933 44.2877 8.548C43.8583 8.268 43.3263 8.128 42.6917 8.128C42.0383 8.128 41.4877 8.268 41.0397 8.548C40.6103 8.80933 40.2557 9.15467 39.9757 9.584C39.7143 10.0133 39.5277 10.5173 39.4157 11.096C39.3037 11.656 39.2477 12.2253 39.2477 12.804C39.2477 13.4013 39.3037 13.98 39.4157 14.54C39.5463 15.0813 39.7423 15.5667 40.0037 15.996C40.2837 16.4067 40.6383 16.7427 41.0677 17.004C41.5157 17.2653 42.0663 17.396 42.7197 17.396ZM52.5288 5.524H56.4768V17.004H60.5088V5.524H64.4568V17.004H68.4888V5.524H72.4368V20H52.5288V5.524ZM75.4703 5.524H79.2783V15.324L84.7383 5.524H89.2463V20H85.4383V10.2L79.9783 20H75.4703V5.524ZM92.2593 5.524H96.2353V10.788H101.863V5.524H105.839V20H101.863V13.924H96.2353V20H92.2593V5.524ZM108.857 5.524H112.833V10.508H116.669C117.397 10.508 118.078 10.6107 118.713 10.816C119.366 11.0027 119.926 11.3013 120.393 11.712C120.878 12.104 121.261 12.5987 121.541 13.196C121.821 13.7747 121.961 14.456 121.961 15.24C121.961 16.0427 121.821 16.7427 121.541 17.34C121.28 17.9373 120.897 18.432 120.393 18.824C119.908 19.216 119.329 19.5147 118.657 19.72C118.004 19.9067 117.285 20 116.501 20H108.857V5.524ZM115.549 17.256C116.277 17.256 116.856 17.0973 117.285 16.78C117.733 16.4627 117.957 15.9493 117.957 15.24C117.957 14.5307 117.724 14.0173 117.257 13.7C116.79 13.364 116.212 13.196 115.521 13.196H112.833V17.256H115.549ZM123.669 5.524H127.617V20H123.669V5.524ZM142.447 11.88L137.351 5.524H141.747L146.423 11.572V5.524H150.175V11.572L154.851 5.524H159.247L153.955 11.74L159.807 20H155.215L151.043 13.756L150.175 14.876V20H146.423V15.1L145.387 13.756L141.383 20H136.791L142.447 11.88ZM159.85 17.004H161.586C161.791 16.5933 161.996 16.08 162.202 15.464C162.426 14.848 162.622 14.1573 162.79 13.392C162.976 12.6267 163.126 11.796 163.238 10.9C163.35 10.004 163.406 9.06133 163.406 8.072V5.524H174.97V17.004H176.846V23.976H173.122V20H163.574V23.976H159.85V17.004ZM170.994 17.004V8.492H167.102V8.856C167.102 9.752 167.046 10.6107 166.934 11.432C166.84 12.2533 166.71 13.0187 166.542 13.728C166.374 14.4187 166.196 15.044 166.01 15.604C165.823 16.164 165.646 16.6307 165.478 17.004H170.994ZM180.794 25.068C180.384 25.068 179.973 25.0493 179.562 25.012C179.17 24.9933 178.769 24.9653 178.358 24.928V21.652C178.676 21.6893 179.002 21.7173 179.338 21.736C179.693 21.7733 180.038 21.792 180.374 21.792C180.972 21.792 181.429 21.624 181.746 21.288C182.064 20.952 182.222 20.5227 182.222 20C182.222 19.6827 182.166 19.384 182.054 19.104L176.986 5.524H181.214L184.49 15.436H184.546L187.71 5.524H191.826L185.778 21.792C185.349 22.968 184.752 23.808 183.986 24.312C183.221 24.816 182.157 25.068 180.794 25.068ZM196.686 8.52H191.926V5.524H205.422V8.52H200.662V20H196.686V8.52ZM207.408 15.688H211.804V20H207.408V15.688ZM211.664 5.384L210.572 14.008H208.584L207.52 5.384V0.0079987H211.664V5.384Z" fill="white"/>
</svg>
