<svg width="278" height="26" viewBox="0 0 278 26" fill="none" xmlns="http://www.w3.org/2000/svg">
<path d="M8.67262 21.648C5.92862 21.648 3.80995 21.0226 2.31662 19.772C0.823284 18.5026 0.0579506 16.7386 0.0206172 14.48H4.36062C4.37928 15.152 4.50062 15.7306 4.72462 16.216C4.96728 16.7013 5.27528 17.1026 5.64862 17.42C6.04062 17.7186 6.48862 17.9426 6.99262 18.092C7.51528 18.2226 8.07528 18.288 8.67262 18.288C9.69928 18.288 10.53 17.98 11.1646 17.364C11.7993 16.7293 12.1166 15.9546 12.1166 15.04C12.1166 14.48 12.014 14.0226 11.8086 13.668C11.6033 13.2946 11.3233 13.0053 10.9686 12.8C10.614 12.576 10.2126 12.4266 9.76462 12.352C9.31662 12.2773 8.84995 12.24 8.36462 12.24H6.85262V9.27195C7.02062 9.29062 7.22595 9.29995 7.46862 9.29995C7.71128 9.29995 7.89795 9.29995 8.02862 9.29995C10.4366 9.29995 11.6406 8.39462 11.6406 6.58395C11.6406 5.79995 11.3606 5.19328 10.8006 4.76395C10.2593 4.33462 9.54062 4.11995 8.64462 4.11995C7.56195 4.11995 6.69395 4.38128 6.04062 4.90395C5.40595 5.42662 5.04195 6.17328 4.94862 7.14395H0.804617C0.823284 6.02395 1.04728 5.06262 1.47662 4.25995C1.90595 3.45728 2.47528 2.79462 3.18462 2.27195C3.91262 1.74928 4.74328 1.36662 5.67662 1.12395C6.62862 0.862618 7.62728 0.731951 8.67262 0.731951C9.68062 0.731951 10.614 0.871951 11.4726 1.15195C12.35 1.41328 13.0966 1.78662 13.7126 2.27195C14.3473 2.75728 14.842 3.34528 15.1966 4.03595C15.57 4.70795 15.7566 5.46395 15.7566 6.30395C15.7566 7.31195 15.4766 8.17995 14.9166 8.90795C14.3566 9.63595 13.6286 10.1026 12.7326 10.308C13.2553 10.4013 13.75 10.5786 14.2166 10.84C14.6833 11.1013 15.0846 11.4373 15.4206 11.848C15.7566 12.24 16.018 12.7066 16.2046 13.248C16.41 13.7893 16.5126 14.3773 16.5126 15.012C16.5126 15.9826 16.3073 16.8786 15.8966 17.7C15.5046 18.5026 14.954 19.2026 14.2446 19.8C13.554 20.3786 12.7326 20.836 11.7806 21.172C10.8286 21.4893 9.79262 21.648 8.67262 21.648ZM19.0735 6.72395H23.0495V11.988H28.6775V6.72395H32.6535V21.2H28.6775V15.124H23.0495V21.2H19.0735V6.72395ZM39.9832 21.564C39.2925 21.564 38.6485 21.48 38.0512 21.312C37.4538 21.144 36.9312 20.8826 36.4832 20.528C36.0352 20.1733 35.6805 19.7253 35.4192 19.184C35.1765 18.6426 35.0552 17.9986 35.0552 17.252C35.0552 16.4306 35.1952 15.7586 35.4752 15.236C35.7738 14.6946 36.1472 14.2653 36.5952 13.948C37.0618 13.6306 37.5845 13.3973 38.1632 13.248C38.7605 13.08 39.3578 12.9493 39.9552 12.856C40.5525 12.7626 41.1405 12.688 41.7192 12.632C42.2978 12.576 42.8112 12.492 43.2592 12.38C43.7072 12.268 44.0618 12.1093 44.3232 11.904C44.5845 11.68 44.7058 11.3626 44.6872 10.952C44.6872 10.5413 44.6125 10.2053 44.4632 9.94395C44.3325 9.68262 44.1458 9.48662 43.9032 9.35595C43.6792 9.20662 43.4085 9.11328 43.0912 9.07595C42.7925 9.01995 42.4658 8.99195 42.1112 8.99195C41.3272 8.99195 40.7112 9.15995 40.2632 9.49595C39.8152 9.83195 39.5538 10.392 39.4792 11.176H35.5032C35.5592 10.2613 35.7925 9.49595 36.2032 8.87995C36.6138 8.24528 37.1365 7.74128 37.7712 7.36795C38.4058 6.99462 39.1152 6.73328 39.8992 6.58395C40.6832 6.41595 41.4858 6.33195 42.3072 6.33195C43.0352 6.33195 43.7725 6.38795 44.5192 6.49995C45.2658 6.59328 45.9472 6.78928 46.5632 7.08795C47.1792 7.38662 47.6832 7.80662 48.0752 8.34795C48.4672 8.88928 48.6632 9.58928 48.6632 10.448V17.98C48.6632 18.6333 48.7005 19.2586 48.7752 19.856C48.8498 20.4533 48.9805 20.9013 49.1672 21.2H45.1352C45.0605 20.976 44.9952 20.752 44.9392 20.528C44.9018 20.2853 44.8738 20.0426 44.8552 19.8C44.2205 20.4533 43.4738 20.9106 42.6152 21.172C41.7565 21.4333 40.8792 21.564 39.9832 21.564ZM41.4672 18.932C42.2512 18.932 42.8578 18.8013 43.2872 18.54C43.7165 18.2786 44.0338 17.9706 44.2392 17.616C44.4445 17.2426 44.5658 16.8693 44.6032 16.496C44.6592 16.1226 44.6872 15.824 44.6872 15.6V14.116C44.5192 14.2653 44.3138 14.3866 44.0712 14.48C43.8285 14.5546 43.5578 14.62 43.2592 14.676C42.9605 14.732 42.6525 14.7786 42.3352 14.816C42.0178 14.8533 41.7005 14.9 41.3832 14.956C41.0658 15.012 40.7672 15.0866 40.4872 15.18C40.2072 15.2733 39.9552 15.404 39.7312 15.572C39.5258 15.7213 39.3578 15.9173 39.2272 16.16C39.0965 16.4026 39.0312 16.7106 39.0312 17.084C39.0312 17.4573 39.0965 17.7653 39.2272 18.008C39.3578 18.232 39.5352 18.4186 39.7592 18.568C39.9832 18.6986 40.2445 18.792 40.5432 18.848C40.8418 18.904 41.1498 18.932 41.4672 18.932ZM51.7493 6.72395H55.7253V11.988H61.3533V6.72395H65.3293V21.2H61.3533V15.124H55.7253V21.2H51.7493V6.72395ZM68.347 6.72395H72.155V16.524L77.615 6.72395H82.123V21.2H78.315V11.4L72.855 21.2H68.347V6.72395ZM88.216 15.768C87.1894 15.6 86.3494 15.1053 85.696 14.284C85.0614 13.4626 84.744 12.4546 84.744 11.26C84.744 10.6253 84.856 10.0373 85.08 9.49595C85.3227 8.93595 85.6587 8.45062 86.088 8.03995C86.5174 7.62928 87.0214 7.31195 87.6 7.08795C88.1787 6.84528 88.8227 6.72395 89.532 6.72395H98.296V21.2H94.32V16.104H92.444L88.496 21.2H83.624L88.216 15.768ZM94.32 9.60795H91.156C90.2414 9.60795 89.616 9.77595 89.28 10.112C88.944 10.4293 88.776 10.8586 88.776 11.4C88.776 11.96 88.9347 12.408 89.252 12.744C89.588 13.08 90.2227 13.248 91.156 13.248H94.32V9.60795ZM109.228 6.72395H117.544C118.179 6.72395 118.776 6.79862 119.336 6.94795C119.896 7.07862 120.382 7.29328 120.792 7.59195C121.222 7.87195 121.558 8.24528 121.8 8.71195C122.043 9.17862 122.164 9.72928 122.164 10.364C122.164 11.0733 121.987 11.6893 121.632 12.212C121.278 12.716 120.802 13.0986 120.204 13.36C120.951 13.5653 121.576 13.9573 122.08 14.536C122.584 15.096 122.836 15.88 122.836 16.888C122.836 17.5973 122.706 18.2226 122.444 18.764C122.202 19.2866 121.856 19.7346 121.408 20.108C120.96 20.4626 120.438 20.7333 119.84 20.92C119.243 21.1066 118.608 21.2 117.936 21.2H109.228V6.72395ZM116.088 18.624C116.424 18.624 116.751 18.6053 117.068 18.568C117.386 18.512 117.666 18.4186 117.908 18.288C118.151 18.1573 118.347 17.9706 118.496 17.728C118.646 17.4666 118.72 17.1306 118.72 16.72C118.72 16.3093 118.636 15.9733 118.468 15.712C118.319 15.4506 118.114 15.2546 117.852 15.124C117.591 14.9933 117.292 14.9093 116.956 14.872C116.62 14.816 116.275 14.788 115.92 14.788H113.148V18.624H116.088ZM115.78 12.548C116.079 12.548 116.368 12.5293 116.648 12.492C116.928 12.4546 117.18 12.38 117.404 12.268C117.628 12.1373 117.806 11.9693 117.936 11.764C118.067 11.54 118.132 11.2413 118.132 10.868C118.132 10.5133 118.067 10.2333 117.936 10.028C117.806 9.80395 117.628 9.63595 117.404 9.52395C117.199 9.41195 116.947 9.33728 116.648 9.29995C116.368 9.26262 116.079 9.24395 115.78 9.24395H113.148V12.548H115.78ZM131.863 18.204H133.599C133.804 17.7933 134.01 17.28 134.215 16.664C134.439 16.048 134.635 15.3573 134.803 14.592C134.99 13.8266 135.139 12.996 135.251 12.1C135.363 11.204 135.419 10.2613 135.419 9.27195V6.72395H146.983V18.204H148.859V25.176H145.135V21.2H135.587V25.176H131.863V18.204ZM143.007 18.204V9.69195H139.115V10.056C139.115 10.952 139.059 11.8106 138.947 12.632C138.854 13.4533 138.723 14.2186 138.555 14.928C138.387 15.6186 138.21 16.244 138.023 16.804C137.836 17.364 137.659 17.8306 137.491 18.204H143.007ZM150.764 6.72395H159.08C159.714 6.72395 160.312 6.79862 160.872 6.94795C161.432 7.07862 161.917 7.29328 162.328 7.59195C162.757 7.87195 163.093 8.24528 163.336 8.71195C163.578 9.17862 163.7 9.72928 163.7 10.364C163.7 11.0733 163.522 11.6893 163.168 12.212C162.813 12.716 162.337 13.0986 161.74 13.36C162.486 13.5653 163.112 13.9573 163.616 14.536C164.12 15.096 164.372 15.88 164.372 16.888C164.372 17.5973 164.241 18.2226 163.98 18.764C163.737 19.2866 163.392 19.7346 162.944 20.108C162.496 20.4626 161.973 20.7333 161.376 20.92C160.778 21.1066 160.144 21.2 159.472 21.2H150.764V6.72395ZM157.624 18.624C157.96 18.624 158.286 18.6053 158.604 18.568C158.921 18.512 159.201 18.4186 159.444 18.288C159.686 18.1573 159.882 17.9706 160.032 17.728C160.181 17.4666 160.256 17.1306 160.256 16.72C160.256 16.3093 160.172 15.9733 160.004 15.712C159.854 15.4506 159.649 15.2546 159.388 15.124C159.126 14.9933 158.828 14.9093 158.492 14.872C158.156 14.816 157.81 14.788 157.456 14.788H154.684V18.624H157.624ZM157.316 12.548C157.614 12.548 157.904 12.5293 158.184 12.492C158.464 12.4546 158.716 12.38 158.94 12.268C159.164 12.1373 159.341 11.9693 159.472 11.764C159.602 11.54 159.668 11.2413 159.668 10.868C159.668 10.5133 159.602 10.2333 159.472 10.028C159.341 9.80395 159.164 9.63595 158.94 9.52395C158.734 9.41195 158.482 9.33728 158.184 9.29995C157.904 9.26262 157.614 9.24395 157.316 9.24395H154.684V12.548H157.316ZM166.921 6.72395H170.729V16.524L176.189 6.72395H180.697V21.2H176.889V11.4L171.429 21.2H166.921V6.72395ZM187.714 13.08L182.618 6.72395H187.014L191.69 12.772V6.72395H195.442V12.772L200.118 6.72395H204.514L199.222 12.94L205.074 21.2H200.482L196.31 14.956L195.442 16.076V21.2H191.69V16.3L190.654 14.956L186.65 21.2H182.058L187.714 13.08ZM213.125 21.564C211.986 21.564 210.96 21.3866 210.045 21.032C209.13 20.6586 208.356 20.136 207.721 19.464C207.086 18.792 206.592 17.9893 206.237 17.056C205.901 16.1226 205.733 15.096 205.733 13.976C205.733 12.8933 205.91 11.8853 206.265 10.952C206.62 10.0186 207.124 9.21595 207.777 8.54395C208.43 7.85328 209.205 7.31195 210.101 6.91995C211.016 6.52795 212.024 6.33195 213.125 6.33195C214.282 6.33195 215.3 6.54662 216.177 6.97595C217.073 7.40528 217.81 7.98395 218.389 8.71195C218.986 9.42128 219.434 10.252 219.733 11.204C220.032 12.156 220.181 13.1453 220.181 14.172C220.181 14.3026 220.181 14.4333 220.181 14.564C220.181 14.676 220.172 14.7973 220.153 14.928H209.709C209.765 16.216 210.092 17.1493 210.689 17.728C211.286 18.3066 212.145 18.596 213.265 18.596C214.068 18.596 214.758 18.4 215.337 18.008C215.916 17.5973 216.27 17.168 216.401 16.72H219.901C219.341 18.456 218.482 19.6973 217.325 20.444C216.168 21.1906 214.768 21.564 213.125 21.564ZM216.177 12.408C215.99 11.4 215.654 10.6346 215.169 10.112C214.702 9.58928 213.984 9.32795 213.013 9.32795C212.36 9.32795 211.828 9.43995 211.417 9.66395C211.006 9.86928 210.67 10.1306 210.409 10.448C210.166 10.7653 209.989 11.1013 209.877 11.456C209.784 11.8106 209.728 12.128 209.709 12.408H216.177ZM222.511 6.72395H226.487V11.988H232.115V6.72395H236.091V21.2H232.115V15.124H226.487V21.2H222.511V6.72395ZM239.109 6.72395H242.917V16.524L248.377 6.72395H252.885V21.2H249.077V11.4L243.617 21.2H239.109V6.72395ZM255.898 6.72395H259.706V16.524L265.166 6.72395H269.674V21.2H265.866V11.4L260.406 21.2H255.898V6.72395ZM272.855 16.888H277.251V21.2H272.855V16.888Z" fill="white"/>
</svg>
