<svg width="231" height="25" viewBox="0 0 231 25" fill="none" xmlns="http://www.w3.org/2000/svg">
<path d="M0.911004 0.608096H5.307V8.6161L13.119 0.608096H18.607L9.983 8.9801L19.363 20.6001H13.847L6.791 11.7241L5.307 13.3201V20.6001H0.911004V0.608096ZM27.726 20.9641C26.5874 20.9641 25.5607 20.7868 24.646 20.4321C23.7314 20.0774 22.9474 19.5734 22.294 18.9201C21.6407 18.2481 21.1367 17.4454 20.782 16.5121C20.4274 15.5788 20.25 14.5334 20.25 13.3761C20.25 12.2188 20.4274 11.1734 20.782 10.2401C21.1367 9.2881 21.6407 8.48543 22.294 7.8321C22.9474 7.1601 23.7314 6.64676 24.646 6.2921C25.5607 5.91876 26.5874 5.7321 27.726 5.7321C28.8647 5.7321 29.8914 5.91876 30.806 6.2921C31.7394 6.64676 32.5327 7.1601 33.186 7.8321C33.8394 8.48543 34.3434 9.2881 34.698 10.2401C35.0527 11.1734 35.23 12.2188 35.23 13.3761C35.23 14.5334 35.0527 15.5788 34.698 16.5121C34.3434 17.4454 33.8394 18.2481 33.186 18.9201C32.5327 19.5734 31.7394 20.0774 30.806 20.4321C29.8914 20.7868 28.8647 20.9641 27.726 20.9641ZM27.726 17.9961C28.398 17.9961 28.958 17.8654 29.406 17.6041C29.8727 17.3428 30.2367 16.9974 30.498 16.5681C30.778 16.1201 30.974 15.6254 31.086 15.0841C31.198 14.5241 31.254 13.9548 31.254 13.3761C31.254 12.7974 31.198 12.2281 31.086 11.6681C30.974 11.1081 30.778 10.6134 30.498 10.1841C30.2367 9.75476 29.8727 9.40943 29.406 9.1481C28.958 8.8681 28.398 8.7281 27.726 8.7281C27.054 8.7281 26.494 8.8681 26.046 9.1481C25.598 9.40943 25.234 9.75476 24.954 10.1841C24.6927 10.6134 24.506 11.1081 24.394 11.6681C24.282 12.2281 24.226 12.7974 24.226 13.3761C24.226 13.9548 24.282 14.5241 24.394 15.0841C24.506 15.6254 24.6927 16.1201 24.954 16.5681C25.234 16.9974 25.598 17.3428 26.046 17.6041C26.494 17.8654 27.054 17.9961 27.726 17.9961ZM37.8152 6.1241H51.1152V20.6001H47.1392V9.1201H41.7912V20.6001H37.8152V6.1241ZM54.1394 6.1241H58.1154V11.1081H61.9514C62.6794 11.1081 63.3608 11.2108 63.9954 11.4161C64.6488 11.6028 65.2088 11.9014 65.6754 12.3121C66.1608 12.7041 66.5434 13.1988 66.8234 13.7961C67.1034 14.3748 67.2434 15.0561 67.2434 15.8401C67.2434 16.6428 67.1034 17.3428 66.8234 17.9401C66.5621 18.5374 66.1794 19.0321 65.6754 19.4241C65.1901 19.8161 64.6114 20.1148 63.9394 20.3201C63.2861 20.5068 62.5674 20.6001 61.7834 20.6001H54.1394V6.1241ZM60.8314 17.8561C61.5594 17.8561 62.1381 17.6974 62.5674 17.3801C63.0154 17.0628 63.2394 16.5494 63.2394 15.8401C63.2394 15.1308 63.0061 14.6174 62.5394 14.3001C62.0728 13.9641 61.4941 13.7961 60.8034 13.7961H58.1154V17.8561H60.8314ZM68.9514 6.1241H72.8994V20.6001H68.9514V6.1241ZM79.4604 9.1201H74.7004V6.1241H88.1964V9.1201H83.4364V20.6001H79.4604V9.1201ZM97.0151 20.9641C95.8764 20.9641 94.8498 20.7868 93.9351 20.4321C93.0204 20.0774 92.2364 19.5734 91.5831 18.9201C90.9298 18.2481 90.4258 17.4454 90.0711 16.5121C89.7164 15.5788 89.5391 14.5334 89.5391 13.3761C89.5391 12.2188 89.7164 11.1734 90.0711 10.2401C90.4258 9.2881 90.9298 8.48543 91.5831 7.8321C92.2364 7.1601 93.0204 6.64676 93.9351 6.2921C94.8498 5.91876 95.8764 5.7321 97.0151 5.7321C98.1538 5.7321 99.1804 5.91876 100.095 6.2921C101.028 6.64676 101.822 7.1601 102.475 7.8321C103.128 8.48543 103.632 9.2881 103.987 10.2401C104.342 11.1734 104.519 12.2188 104.519 13.3761C104.519 14.5334 104.342 15.5788 103.987 16.5121C103.632 17.4454 103.128 18.2481 102.475 18.9201C101.822 19.5734 101.028 20.0774 100.095 20.4321C99.1804 20.7868 98.1538 20.9641 97.0151 20.9641ZM97.0151 17.9961C97.6871 17.9961 98.2471 17.8654 98.6951 17.6041C99.1618 17.3428 99.5258 16.9974 99.7871 16.5681C100.067 16.1201 100.263 15.6254 100.375 15.0841C100.487 14.5241 100.543 13.9548 100.543 13.3761C100.543 12.7974 100.487 12.2281 100.375 11.6681C100.263 11.1081 100.067 10.6134 99.7871 10.1841C99.5258 9.75476 99.1618 9.40943 98.6951 9.1481C98.2471 8.8681 97.6871 8.7281 97.0151 8.7281C96.3431 8.7281 95.7831 8.8681 95.3351 9.1481C94.8871 9.40943 94.5231 9.75476 94.2431 10.1841C93.9818 10.6134 93.7951 11.1081 93.6831 11.6681C93.5711 12.2281 93.5151 12.7974 93.5151 13.3761C93.5151 13.9548 93.5711 14.5241 93.6831 15.0841C93.7951 15.6254 93.9818 16.1201 94.2431 16.5681C94.5231 16.9974 94.8871 17.3428 95.3351 17.6041C95.7831 17.8654 96.3431 17.9961 97.0151 17.9961ZM107.104 6.1241H112.872L115.868 16.6521H115.98L118.976 6.1241H124.744V20.6001H120.992V9.5961H120.908L117.8 20.6001H114.048L110.94 9.5961H110.856V20.6001H107.104V6.1241ZM135.569 6.1241H139.545V12.0321L144.865 6.1241H149.541L143.493 12.5081L150.325 20.6001H145.509L140.385 14.5801L139.545 15.5041V20.6001H135.569V6.1241ZM170.808 20.6001H159.44V6.1241H163.416V17.6041H168.764V6.1241H172.74V17.6041H174.532V24.5761H170.808V20.6001ZM183.003 20.9641C181.865 20.9641 180.838 20.7868 179.923 20.4321C179.009 20.0588 178.234 19.5361 177.599 18.8641C176.965 18.1921 176.47 17.3894 176.115 16.4561C175.779 15.5228 175.611 14.4961 175.611 13.3761C175.611 12.2934 175.789 11.2854 176.143 10.3521C176.498 9.41876 177.002 8.6161 177.655 7.9441C178.309 7.25343 179.083 6.7121 179.979 6.3201C180.894 5.9281 181.902 5.7321 183.003 5.7321C184.161 5.7321 185.178 5.94676 186.055 6.3761C186.951 6.80543 187.689 7.3841 188.267 8.1121C188.865 8.82143 189.313 9.6521 189.611 10.6041C189.91 11.5561 190.059 12.5454 190.059 13.5721C190.059 13.7028 190.059 13.8334 190.059 13.9641C190.059 14.0761 190.05 14.1974 190.031 14.3281H179.587C179.643 15.6161 179.97 16.5494 180.567 17.1281C181.165 17.7068 182.023 17.9961 183.143 17.9961C183.946 17.9961 184.637 17.8001 185.215 17.4081C185.794 16.9974 186.149 16.5681 186.279 16.1201H189.779C189.219 17.8561 188.361 19.0974 187.203 19.8441C186.046 20.5908 184.646 20.9641 183.003 20.9641ZM186.055 11.8081C185.869 10.8001 185.533 10.0348 185.047 9.5121C184.581 8.98943 183.862 8.7281 182.891 8.7281C182.238 8.7281 181.706 8.8401 181.295 9.0641C180.885 9.26943 180.549 9.53076 180.287 9.8481C180.045 10.1654 179.867 10.5014 179.755 10.8561C179.662 11.2108 179.606 11.5281 179.587 11.8081H186.055ZM193.005 20.8241C192.837 20.8241 192.576 20.7961 192.221 20.7401C191.867 20.6841 191.587 20.6188 191.381 20.5441V17.5481C191.493 17.5854 191.624 17.6134 191.773 17.6321C191.923 17.6321 192.072 17.6321 192.221 17.6321C192.557 17.6321 192.856 17.5294 193.117 17.3241C193.397 17.1001 193.621 16.6801 193.789 16.0641C193.976 15.4481 194.116 14.5708 194.209 13.4321C194.321 12.2934 194.377 10.8001 194.377 8.9521V6.1241H206.137V20.6001H202.161V9.1201H198.073C197.999 11.1734 197.877 12.9374 197.709 14.4121C197.541 15.8868 197.271 17.1001 196.897 18.0521C196.543 19.0041 196.048 19.7041 195.413 20.1521C194.797 20.6001 193.995 20.8241 193.005 20.8241ZM209.151 6.1241H212.959V15.9241L218.419 6.1241H222.927V20.6001H219.119V10.8001L213.659 20.6001H209.151V6.1241ZM226.108 16.2881H230.504V20.6001H226.108V16.2881Z" fill="white"/>
</svg>
