<svg width="199" height="26" viewBox="0 0 199 26" fill="none" xmlns="http://www.w3.org/2000/svg">
<path d="M10.0404 21.0481C8.4911 21.0481 7.10977 20.7868 5.89644 20.2641C4.6831 19.7228 3.65644 18.9854 2.81644 18.0521C1.97644 17.1188 1.33244 16.0268 0.884438 14.7761C0.436438 13.5068 0.212438 12.1441 0.212438 10.6881C0.212438 9.21343 0.436438 7.8321 0.884438 6.5441C1.33244 5.2561 1.97644 4.1361 2.81644 3.1841C3.65644 2.2321 4.6831 1.48543 5.89644 0.944097C7.10977 0.402764 8.4911 0.132097 10.0404 0.132097C11.1231 0.132097 12.1591 0.290764 13.1484 0.608096C14.1378 0.92543 15.0151 1.3921 15.7804 2.0081C16.5644 2.60543 17.2084 3.3521 17.7124 4.2481C18.2164 5.1441 18.5338 6.17076 18.6644 7.3281H14.4084C14.3338 6.8241 14.1658 6.36676 13.9044 5.9561C13.6431 5.52676 13.3164 5.15343 12.9244 4.8361C12.5324 4.51876 12.0844 4.2761 11.5804 4.1081C11.0951 3.92143 10.5818 3.8281 10.0404 3.8281C9.0511 3.8281 8.2111 4.0241 7.52044 4.4161C6.82977 4.78943 6.26977 5.30276 5.84044 5.9561C5.4111 6.59076 5.09377 7.31876 4.88844 8.1401C4.70177 8.96143 4.60844 9.81076 4.60844 10.6881C4.60844 11.5281 4.70177 12.3494 4.88844 13.1521C5.09377 13.9361 5.4111 14.6454 5.84044 15.2801C6.26977 15.9148 6.82977 16.4281 7.52044 16.8201C8.2111 17.1934 9.0511 17.3801 10.0404 17.3801C11.3844 17.3801 12.4298 16.9694 13.1764 16.1481C13.9418 15.3268 14.4084 14.2441 14.5764 12.9001H18.8324C18.7204 14.1694 18.4311 15.3081 17.9644 16.3161C17.4978 17.3054 16.8818 18.1548 16.1164 18.8641C15.3511 19.5734 14.4551 20.1148 13.4284 20.4881C12.4018 20.8614 11.2724 21.0481 10.0404 21.0481ZM21.4143 6.1241H25.3903V12.0321L30.7103 6.1241H35.3863L29.3383 12.5081L36.1703 20.6001H31.3543L26.2303 14.5801L25.3903 15.5041V20.6001H21.4143V6.1241ZM41.8045 20.9641C41.1138 20.9641 40.4698 20.8801 39.8725 20.7121C39.2751 20.5441 38.7525 20.2828 38.3045 19.9281C37.8565 19.5734 37.5018 19.1254 37.2405 18.5841C36.9978 18.0428 36.8765 17.3988 36.8765 16.6521C36.8765 15.8308 37.0165 15.1588 37.2965 14.6361C37.5951 14.0948 37.9685 13.6654 38.4165 13.3481C38.8831 13.0308 39.4058 12.7974 39.9845 12.6481C40.5818 12.4801 41.1791 12.3494 41.7765 12.2561C42.3738 12.1628 42.9618 12.0881 43.5405 12.0321C44.1191 11.9761 44.6325 11.8921 45.0805 11.7801C45.5285 11.6681 45.8831 11.5094 46.1445 11.3041C46.4058 11.0801 46.5271 10.7628 46.5085 10.3521C46.5085 9.94143 46.4338 9.60543 46.2845 9.3441C46.1538 9.08276 45.9671 8.88676 45.7245 8.7561C45.5005 8.60676 45.2298 8.51343 44.9125 8.4761C44.6138 8.4201 44.2871 8.3921 43.9325 8.3921C43.1485 8.3921 42.5325 8.5601 42.0845 8.8961C41.6365 9.2321 41.3751 9.7921 41.3005 10.5761H37.3245C37.3805 9.66143 37.6138 8.8961 38.0245 8.2801C38.4351 7.64543 38.9578 7.14143 39.5925 6.7681C40.2271 6.39476 40.9365 6.13343 41.7205 5.9841C42.5045 5.8161 43.3071 5.7321 44.1285 5.7321C44.8565 5.7321 45.5938 5.7881 46.3405 5.9001C47.0871 5.99343 47.7685 6.18943 48.3845 6.4881C49.0005 6.78676 49.5045 7.20676 49.8965 7.7481C50.2885 8.28943 50.4845 8.98943 50.4845 9.8481V17.3801C50.4845 18.0334 50.5218 18.6588 50.5965 19.2561C50.6711 19.8534 50.8018 20.3014 50.9885 20.6001H46.9565C46.8818 20.3761 46.8165 20.1521 46.7605 19.9281C46.7231 19.6854 46.6951 19.4428 46.6765 19.2001C46.0418 19.8534 45.2951 20.3108 44.4365 20.5721C43.5778 20.8334 42.7005 20.9641 41.8045 20.9641ZM43.2885 18.3321C44.0725 18.3321 44.6791 18.2014 45.1085 17.9401C45.5378 17.6788 45.8551 17.3708 46.0605 17.0161C46.2658 16.6428 46.3871 16.2694 46.4245 15.8961C46.4805 15.5228 46.5085 15.2241 46.5085 15.0001V13.5161C46.3405 13.6654 46.1351 13.7868 45.8925 13.8801C45.6498 13.9548 45.3791 14.0201 45.0805 14.0761C44.7818 14.1321 44.4738 14.1788 44.1565 14.2161C43.8391 14.2534 43.5218 14.3001 43.2045 14.3561C42.8871 14.4121 42.5885 14.4868 42.3085 14.5801C42.0285 14.6734 41.7765 14.8041 41.5525 14.9721C41.3471 15.1214 41.1791 15.3174 41.0485 15.5601C40.9178 15.8028 40.8525 16.1108 40.8525 16.4841C40.8525 16.8574 40.9178 17.1654 41.0485 17.4081C41.1791 17.6321 41.3565 17.8188 41.5805 17.9681C41.8045 18.0988 42.0658 18.1921 42.3645 18.2481C42.6631 18.3041 42.9711 18.3321 43.2885 18.3321ZM62.6426 15.2801C62.2693 15.3921 61.7186 15.5321 60.9906 15.7001C60.2626 15.8494 59.5066 15.9241 58.7226 15.9241C56.7439 15.9241 55.3253 15.4668 54.4666 14.5521C53.6079 13.6374 53.1786 12.3961 53.1786 10.8281V6.1241H57.1266V10.0161C57.1266 11.0801 57.3319 11.8174 57.7426 12.2281C58.1533 12.6388 58.8253 12.8441 59.7586 12.8441C60.3373 12.8441 60.8786 12.7974 61.3826 12.7041C61.8866 12.6108 62.3066 12.5174 62.6426 12.4241V6.1241H66.6186V20.6001H62.6426V15.2801ZM69.6487 6.1241H73.4567V15.9241L78.9167 6.1241H83.4247V20.6001H79.6167V10.8001L74.1567 20.6001H69.6487V6.1241ZM94.3428 6.1241H102.659C103.293 6.1241 103.891 6.19876 104.451 6.3481C105.011 6.47876 105.496 6.69343 105.907 6.9921C106.336 7.2721 106.672 7.64543 106.915 8.1121C107.157 8.57876 107.279 9.12943 107.279 9.7641C107.279 10.4734 107.101 11.0894 106.747 11.6121C106.392 12.1161 105.916 12.4988 105.319 12.7601C106.065 12.9654 106.691 13.3574 107.195 13.9361C107.699 14.4961 107.951 15.2801 107.951 16.2881C107.951 16.9974 107.82 17.6228 107.559 18.1641C107.316 18.6868 106.971 19.1348 106.523 19.5081C106.075 19.8628 105.552 20.1334 104.955 20.3201C104.357 20.5068 103.723 20.6001 103.051 20.6001H94.3428V6.1241ZM101.203 18.0241C101.539 18.0241 101.865 18.0054 102.183 17.9681C102.5 17.9121 102.78 17.8188 103.023 17.6881C103.265 17.5574 103.461 17.3708 103.611 17.1281C103.76 16.8668 103.835 16.5308 103.835 16.1201C103.835 15.7094 103.751 15.3734 103.583 15.1121C103.433 14.8508 103.228 14.6548 102.967 14.5241C102.705 14.3934 102.407 14.3094 102.071 14.2721C101.735 14.2161 101.389 14.1881 101.035 14.1881H98.2628V18.0241H101.203ZM100.895 11.9481C101.193 11.9481 101.483 11.9294 101.763 11.8921C102.043 11.8548 102.295 11.7801 102.519 11.6681C102.743 11.5374 102.92 11.3694 103.051 11.1641C103.181 10.9401 103.247 10.6414 103.247 10.2681C103.247 9.91343 103.181 9.63343 103.051 9.4281C102.92 9.2041 102.743 9.0361 102.519 8.9241C102.313 8.8121 102.061 8.73743 101.763 8.7001C101.483 8.66276 101.193 8.6441 100.895 8.6441H98.2628V11.9481H100.895ZM110.5 6.1241H123.8V20.6001H119.824V9.1201H114.476V20.6001H110.5V6.1241ZM133.517 20.9641C132.378 20.9641 131.351 20.7868 130.437 20.4321C129.522 20.0588 128.747 19.5361 128.113 18.8641C127.478 18.1921 126.983 17.3894 126.629 16.4561C126.293 15.5228 126.125 14.4961 126.125 13.3761C126.125 12.2934 126.302 11.2854 126.657 10.3521C127.011 9.41876 127.515 8.6161 128.169 7.9441C128.822 7.25343 129.597 6.7121 130.493 6.3201C131.407 5.9281 132.415 5.7321 133.517 5.7321C134.674 5.7321 135.691 5.94676 136.569 6.3761C137.465 6.80543 138.202 7.3841 138.781 8.1121C139.378 8.82143 139.826 9.6521 140.125 10.6041C140.423 11.5561 140.573 12.5454 140.573 13.5721C140.573 13.7028 140.573 13.8334 140.573 13.9641C140.573 14.0761 140.563 14.1974 140.545 14.3281H130.101C130.157 15.6161 130.483 16.5494 131.081 17.1281C131.678 17.7068 132.537 17.9961 133.657 17.9961C134.459 17.9961 135.15 17.8001 135.729 17.4081C136.307 16.9974 136.662 16.5681 136.793 16.1201H140.293C139.733 17.8561 138.874 19.0974 137.717 19.8441C136.559 20.5908 135.159 20.9641 133.517 20.9641ZM136.569 11.8081C136.382 10.8001 136.046 10.0348 135.561 9.5121C135.094 8.98943 134.375 8.7281 133.405 8.7281C132.751 8.7281 132.219 8.8401 131.809 9.0641C131.398 9.26943 131.062 9.53076 130.801 9.8481C130.558 10.1654 130.381 10.5014 130.269 10.8561C130.175 11.2108 130.119 11.5281 130.101 11.8081H136.569ZM142.903 6.1241H146.683V7.9721H146.739C147.224 7.1881 147.84 6.61876 148.587 6.2641C149.333 5.90943 150.155 5.7321 151.051 5.7321C152.189 5.7321 153.169 5.94676 153.991 6.3761C154.812 6.80543 155.493 7.37476 156.035 8.0841C156.576 8.79343 156.977 9.6241 157.239 10.5761C157.5 11.5094 157.631 12.4894 157.631 13.5161C157.631 14.4868 157.5 15.4201 157.239 16.3161C156.977 17.2121 156.576 18.0054 156.035 18.6961C155.512 19.3868 154.849 19.9374 154.047 20.3481C153.263 20.7588 152.339 20.9641 151.275 20.9641C150.379 20.9641 149.548 20.7868 148.783 20.4321C148.036 20.0588 147.42 19.5174 146.935 18.8081H146.879V25.6681H142.903V6.1241ZM150.211 17.9961C150.864 17.9961 151.405 17.8654 151.835 17.6041C152.283 17.3428 152.637 17.0068 152.899 16.5961C153.179 16.1668 153.375 15.6814 153.487 15.1401C153.599 14.5801 153.655 14.0014 153.655 13.4041C153.655 12.8254 153.589 12.2561 153.459 11.6961C153.347 11.1361 153.151 10.6414 152.871 10.2121C152.591 9.7641 152.227 9.40943 151.779 9.1481C151.349 8.8681 150.817 8.7281 150.183 8.7281C149.529 8.7281 148.979 8.8681 148.531 9.1481C148.101 9.40943 147.747 9.75476 147.467 10.1841C147.205 10.6134 147.019 11.1174 146.907 11.6961C146.795 12.2561 146.739 12.8254 146.739 13.4041C146.739 14.0014 146.795 14.5801 146.907 15.1401C147.037 15.6814 147.233 16.1668 147.495 16.5961C147.775 17.0068 148.129 17.3428 148.559 17.6041C149.007 17.8654 149.557 17.9961 150.211 17.9961ZM166.712 20.9641C165.573 20.9641 164.546 20.7868 163.632 20.4321C162.717 20.0588 161.942 19.5361 161.308 18.8641C160.673 18.1921 160.178 17.3894 159.824 16.4561C159.488 15.5228 159.32 14.4961 159.32 13.3761C159.32 12.2934 159.497 11.2854 159.852 10.3521C160.206 9.41876 160.71 8.6161 161.364 7.9441C162.017 7.25343 162.792 6.7121 163.688 6.3201C164.602 5.9281 165.61 5.7321 166.712 5.7321C167.869 5.7321 168.886 5.94676 169.764 6.3761C170.66 6.80543 171.397 7.3841 171.976 8.1121C172.573 8.82143 173.021 9.6521 173.32 10.6041C173.618 11.5561 173.768 12.5454 173.768 13.5721C173.768 13.7028 173.768 13.8334 173.768 13.9641C173.768 14.0761 173.758 14.1974 173.74 14.3281H163.296C163.352 15.6161 163.678 16.5494 164.276 17.1281C164.873 17.7068 165.732 17.9961 166.852 17.9961C167.654 17.9961 168.345 17.8001 168.924 17.4081C169.502 16.9974 169.857 16.5681 169.988 16.1201H173.488C172.928 17.8561 172.069 19.0974 170.912 19.8441C169.754 20.5908 168.354 20.9641 166.712 20.9641ZM169.764 11.8081C169.577 10.8001 169.241 10.0348 168.756 9.5121C168.289 8.98943 167.57 8.7281 166.6 8.7281C165.946 8.7281 165.414 8.8401 165.004 9.0641C164.593 9.26943 164.257 9.53076 163.996 9.8481C163.753 10.1654 163.576 10.5014 163.464 10.8561C163.37 11.2108 163.314 11.5281 163.296 11.8081H169.764ZM165.676 0.608096V3.8841H161.924V0.608096H165.676ZM171.444 0.608096V3.8841H167.664V0.608096H171.444ZM174.782 17.6041H176.518C176.723 17.1934 176.929 16.6801 177.134 16.0641C177.358 15.4481 177.554 14.7574 177.722 13.9921C177.909 13.2268 178.058 12.3961 178.17 11.5001C178.282 10.6041 178.338 9.66143 178.338 8.6721V6.1241H189.902V17.6041H191.778V24.5761H188.054V20.6001H178.506V24.5761H174.782V17.6041ZM185.926 17.6041V9.0921H182.034V9.4561C182.034 10.3521 181.978 11.2108 181.866 12.0321C181.773 12.8534 181.642 13.6188 181.474 14.3281C181.306 15.0188 181.129 15.6441 180.942 16.2041C180.755 16.7641 180.578 17.2308 180.41 17.6041H185.926ZM193.767 16.2881H198.163V20.6001H193.767V16.2881ZM198.023 5.9841L196.931 14.6081H194.943L193.879 5.9841V0.608096H198.023V5.9841Z" fill="white"/>
</svg>
